<svg xmlns="http://www.w3.org/2000/svg" fill="none" viewBox="7.99 6.99 44.35 46.64">
<g clip-path="url(#clip0)">
<path d="M34.3801 41.2297C34.2297 41.2271 34.0862 41.1663 33.9799 41.0599C33.8735 40.9536 33.8126 40.8101 33.8101 40.6597V28.7897C33.8101 28.7149 33.8248 28.6407 33.8534 28.5716C33.8821 28.5024 33.9241 28.4396 33.977 28.3867C34.0299 28.3337 34.0928 28.2918 34.1619 28.2631C34.2311 28.2345 34.3052 28.2197 34.3801 28.2197C34.4549 28.2197 34.529 28.2345 34.5982 28.2631C34.6673 28.2918 34.7302 28.3337 34.7831 28.3867C34.836 28.4396 34.878 28.5024 34.9067 28.5716C34.9353 28.6407 34.9501 28.7149 34.9501 28.7897V40.6597C34.9475 40.8101 34.8866 40.9536 34.7803 41.0599C34.6739 41.1663 34.5304 41.2271 34.3801 41.2297Z" fill="black"/>
<path d="M25.9699 41.2297C25.8195 41.2271 25.676 41.1663 25.5697 41.0599C25.4634 40.9536 25.4025 40.8101 25.3999 40.6597V28.7897C25.3999 28.7149 25.4147 28.6407 25.4433 28.5716C25.4719 28.5024 25.5139 28.4396 25.5668 28.3867C25.6198 28.3337 25.6826 28.2918 25.7518 28.2631C25.8209 28.2345 25.8951 28.2197 25.9699 28.2197C26.0448 28.2197 26.1189 28.2345 26.188 28.2631C26.2572 28.2918 26.32 28.3337 26.373 28.3867C26.4259 28.4396 26.4679 28.5024 26.4965 28.5716C26.5252 28.6407 26.5399 28.7149 26.5399 28.7897V40.6597C26.5373 40.8101 26.4765 40.9536 26.3701 41.0599C26.2638 41.1663 26.1203 41.2271 25.9699 41.2297Z" fill="black"/>
<path d="M18.9101 35.0897L19.6301 23.1797L19.7601 35.1097L19.7701 35.5397L18.8901 35.5197L18.9101 35.0897Z" fill="black"/>
<path d="M40.5801 35.1097L40.7201 23.1797L41.4301 35.0897L41.4601 35.5197L40.5801 35.5397V35.1097Z" fill="black"/>
<path d="M32.0202 23.3298C31.9833 23.3207 31.9506 23.2995 31.9272 23.2696C31.9038 23.2397 31.8911 23.2028 31.8911 23.1648C31.8911 23.1269 31.9038 23.09 31.9272 23.0601C31.9506 23.0302 31.9833 23.009 32.0202 22.9998C32.8536 22.8722 33.6314 22.5029 34.257 21.9377C34.8827 21.3724 35.3288 20.6361 35.5402 19.8198C35.5526 19.7781 35.5806 19.7426 35.6184 19.7209C35.6561 19.6992 35.7008 19.6928 35.7432 19.703C35.7856 19.7133 35.8223 19.7394 35.846 19.7761C35.8696 19.8127 35.8783 19.857 35.8702 19.8998C35.6493 20.7775 35.175 21.5708 34.5064 22.1807C33.8378 22.7907 33.0044 23.1903 32.1102 23.3298H32.0202Z" fill="black"/>
<path d="M28.3598 23.3396C26.2298 22.7996 25.0298 21.6996 24.5798 19.8996C24.5738 19.8786 24.5722 19.8566 24.5751 19.8349C24.578 19.8133 24.5853 19.7924 24.5965 19.7737C24.6078 19.7549 24.6227 19.7387 24.6405 19.726C24.6583 19.7132 24.6784 19.7042 24.6998 19.6996C24.7215 19.6936 24.7441 19.6919 24.7665 19.6947C24.7888 19.6974 24.8103 19.7046 24.8299 19.7158C24.8494 19.7269 24.8665 19.7418 24.8803 19.7597C24.894 19.7775 24.904 19.7979 24.9098 19.8196C25.3298 21.4896 26.4498 22.4996 28.4498 23.0096C28.4712 23.0143 28.4913 23.0232 28.5091 23.0359C28.5269 23.0487 28.5418 23.0649 28.5531 23.0837C28.5643 23.1024 28.5716 23.1232 28.5745 23.1449C28.5774 23.1666 28.5758 23.1886 28.5698 23.2096C28.5651 23.2323 28.5559 23.2537 28.5427 23.2727C28.5294 23.2916 28.5124 23.3077 28.4928 23.3198C28.4731 23.332 28.4512 23.34 28.4283 23.3434C28.4055 23.3468 28.3822 23.3455 28.3598 23.3396Z" fill="black"/>
<path d="M35.6602 13.9298C35.6602 19.6398 32.2802 20.7998 30.1802 20.7998C28.0802 20.7998 24.7002 19.6398 24.7002 13.9298C24.7002 10.7198 27.2602 9.34977 30.1802 9.25977C33.0902 9.34977 35.6602 10.7198 35.6602 13.9298Z" fill="black"/>
<path d="M30.2002 8.14023C31.9778 8.20388 33.6707 8.9152 34.9602 10.1402C35.4859 10.7674 35.8777 11.4955 36.1116 12.2796C36.3455 13.0638 36.4165 13.8876 36.3202 14.7002C36.2169 16.6531 35.8812 18.5868 35.3202 20.4602L35.1802 20.8902L39.7802 22.8102L41.6502 23.6102C42.377 23.9259 42.9809 24.4701 43.3702 25.1602C44.1402 26.4902 44.9302 27.8102 45.7002 29.0902C48.5002 33.7402 51.1502 38.1402 50.8402 40.8702C50.6034 41.8234 50.6699 42.8266 51.0302 43.7402C51.1707 44.0945 51.2517 44.4696 51.2702 44.8502C51.2824 45.7447 51.2491 46.6392 51.1702 47.5302C51.1702 48.1902 51.0802 48.8702 51.0602 49.5302H45.6202C45.6202 49.3502 45.6202 49.1502 45.6802 48.9402C45.8828 48.0546 45.8024 47.1277 45.4502 46.2902C45.2434 45.9483 45.1265 45.5595 45.1102 45.1602C45.1346 44.7609 45.2016 44.3653 45.3102 43.9802C45.4142 43.6563 45.4747 43.32 45.4902 42.9802C45.4448 42.1164 45.1761 41.2791 44.7102 40.5502C44.6514 40.4567 44.598 40.3599 44.5502 40.2602L41.6002 34.7402L40.6002 34.9802V50.7002H19.7702V34.9902L18.8202 34.7502L15.8202 40.3302C15.7824 40.4099 15.739 40.4867 15.6902 40.5602C15.2244 41.2891 14.9557 42.1264 14.9102 42.9902C14.9268 43.3292 14.9839 43.6649 15.0802 43.9902C15.1967 44.3739 15.2672 44.77 15.2902 45.1702C15.2747 45.5575 15.1649 45.9351 14.9702 46.2702C14.598 47.1162 14.5103 48.0601 14.7202 48.9602C14.7202 49.1602 14.7702 49.3602 14.7802 49.5402H9.34024C9.34024 48.8802 9.27025 48.2002 9.22025 47.5402C9.16025 46.5402 9.09024 45.6202 9.12024 44.8702C9.14678 44.4897 9.23108 44.1154 9.37024 43.7602C9.72792 42.8318 9.79078 41.8157 9.55025 40.8502C9.25025 38.1602 11.9002 33.7602 14.7002 29.1102C15.4702 27.8302 16.2602 26.5102 17.0302 25.1802C17.4196 24.4901 18.0235 23.9459 18.7502 23.6302L20.6202 22.8302L25.2202 20.9102L25.0702 20.4802C24.5136 18.6092 24.1779 16.6794 24.0702 14.7302C23.9726 13.916 24.0429 13.0904 24.2768 12.3043C24.5107 11.5183 24.9033 10.7886 25.4302 10.1602C26.7172 8.93744 28.4062 8.2263 30.1802 8.16023L30.2002 8.14023ZM30.1802 7.02023C28.0932 7.10205 26.1112 7.95756 24.6202 9.42023C23.9879 10.158 23.515 11.0186 23.231 11.9478C22.9471 12.8771 22.8583 13.855 22.9702 14.8202C23.0805 16.6672 23.3855 18.4974 23.8802 20.2802L20.2002 21.7802L18.3102 22.5902C17.3619 22.9972 16.5695 23.6984 16.0502 24.5902C15.3002 25.9102 14.5102 27.2202 13.7502 28.4902C10.7502 33.5402 8.09025 37.8902 8.44025 40.9502C8.44025 40.9502 8.44025 41.0102 8.44025 41.0402C8.64204 41.8154 8.59302 42.6346 8.30025 43.3802C8.11673 43.8359 8.01189 44.3195 7.99023 44.8102C7.99023 45.6202 7.99024 46.6302 8.09024 47.6002V47.6602C8.09024 48.2902 8.17025 48.9402 8.19025 49.5702C8.20066 49.8647 8.32567 50.1434 8.53862 50.347C8.75157 50.5506 9.03563 50.663 9.33025 50.6602H14.7702C14.9256 50.6606 15.0794 50.629 15.222 50.5672C15.3646 50.5055 15.4929 50.4151 15.5989 50.3015C15.705 50.1879 15.7865 50.0537 15.8383 49.9073C15.8902 49.7608 15.9112 49.6052 15.9002 49.4502C15.9002 49.2702 15.9002 49.0602 15.8402 48.8502C15.6832 48.1876 15.7179 47.4939 15.9402 46.8502C16.2463 46.3468 16.4088 45.7693 16.4102 45.1802C16.3898 44.6922 16.3091 44.2085 16.1702 43.7402C16.1034 43.5046 16.0566 43.2637 16.0302 43.0202C16.0676 42.3515 16.2853 41.7053 16.6602 41.1502C16.7402 41.0102 16.7902 40.9302 16.8302 40.8402L18.6002 37.5202V50.7202C18.6029 51.0208 18.7241 51.3083 18.9377 51.5199C19.1512 51.7315 19.4396 51.8502 19.7402 51.8502H40.5502C40.8509 51.8502 41.1393 51.7315 41.3528 51.5199C41.5663 51.3083 41.6876 51.0208 41.6902 50.7202V37.5202L43.4502 40.8102C43.4502 40.8102 43.5702 41.0302 43.6302 41.1302C44.005 41.6928 44.2225 42.3453 44.2602 43.0202C44.2296 43.2598 44.1828 43.497 44.1202 43.7302C43.9805 44.2018 43.8999 44.6888 43.8802 45.1802C43.8889 45.7913 44.0616 46.3888 44.3802 46.9102C44.5821 47.5274 44.6098 48.1883 44.4602 48.8202C44.4602 49.0502 44.4002 49.2702 44.3902 49.4602C44.3753 49.6167 44.3943 49.7746 44.4461 49.9231C44.4979 50.0715 44.5812 50.207 44.6902 50.3202C44.796 50.4347 44.9244 50.5258 45.0673 50.5878C45.2102 50.6498 45.3645 50.6813 45.5202 50.6802H50.9602C51.2549 50.683 51.5389 50.5706 51.7519 50.367C51.9648 50.1634 52.0898 49.8847 52.1002 49.5902C52.1002 48.9402 52.1602 48.2702 52.2102 47.5902C52.2702 46.5902 52.3402 45.5902 52.3102 44.8002C52.2788 44.3108 52.1743 43.8288 52.0002 43.3702C51.7107 42.6382 51.6582 41.8337 51.8502 41.0702C51.8502 41.0702 51.8502 41.0102 51.8502 40.9802C52.2002 37.8802 49.5802 33.5302 46.5502 28.4902L46.4502 28.3302C45.7202 27.1102 44.9602 25.8502 44.2302 24.5802C43.7169 23.6872 42.9272 22.9853 41.9802 22.5802L40.1102 21.7802L36.4502 20.2502C36.9554 18.4625 37.2639 16.6249 37.3702 14.7702C37.4824 13.8081 37.3937 12.8332 37.1097 11.9071C36.8256 10.9811 36.3525 10.124 35.7202 9.39023C34.2284 7.92284 32.2414 7.06672 30.1502 6.99023L30.1802 7.02023Z" fill="black"/>
<path d="M30.0902 22.4405C30.0478 22.4927 29.9945 22.5349 29.934 22.5643C29.8736 22.5937 29.8074 22.6094 29.7402 22.6105C29.6527 22.6104 29.5673 22.5844 29.4947 22.5356C29.4222 22.4868 29.3658 22.4174 29.3328 22.3365C29.2998 22.2555 29.2917 22.1665 29.3095 22.0809C29.3273 21.9953 29.3702 21.9169 29.4328 21.8558C29.4953 21.7947 29.5746 21.7536 29.6606 21.7377C29.7466 21.7219 29.8354 21.7321 29.9156 21.7669C29.9958 21.8017 30.0638 21.8597 30.1109 21.9334C30.1581 22.007 30.1822 22.0931 30.1802 22.1805C30.1762 22.2741 30.1449 22.3644 30.0902 22.4405Z" fill="black"/>
<path d="M19 49.7197H41.15V49.8597C41.15 50.5466 40.8771 51.2054 40.3914 51.6911C39.9057 52.1769 39.2469 52.4497 38.56 52.4497H21.63C21.2865 52.455 20.9454 52.392 20.6266 52.2642C20.3077 52.1364 20.0174 51.9465 19.7727 51.7054C19.5279 51.4644 19.3336 51.1771 19.2009 50.8602C19.0683 50.5433 19 50.2032 19 49.8597V49.7197Z" fill="white"/>
<path d="M40.5799 49.5098V50.7098C40.5799 51.8998 35.3799 52.4998 30.1699 52.4998C24.9599 52.4998 19.7699 51.8998 19.7699 50.7098V49.5098H18.6299V50.7098C18.6299 51.5098 18.6299 53.6298 30.1699 53.6298C41.7099 53.6298 41.7199 51.5098 41.7199 50.7098V49.5098H40.5799Z" fill="black"/>
<path d="M28.3602 52.9599C28.3115 52.9573 28.2658 52.9362 28.2323 52.9008C28.1988 52.8655 28.1801 52.8186 28.1802 52.7699V20.5699C28.1801 20.5212 28.1988 20.4743 28.2323 20.4389C28.2658 20.4036 28.3115 20.3824 28.3602 20.3799C28.4098 20.3823 28.4567 20.4031 28.4918 20.4382C28.527 20.4733 28.5478 20.5203 28.5502 20.5699V52.7699C28.5478 52.8195 28.527 52.8664 28.4918 52.9015C28.4567 52.9367 28.4098 52.9575 28.3602 52.9599Z" fill="black"/>
<path d="M31.9899 52.9602C31.9395 52.9602 31.8912 52.9402 31.8556 52.9046C31.8199 52.8689 31.7999 52.8206 31.7999 52.7702V20.5702C31.7934 20.5423 31.7933 20.5133 31.7995 20.4854C31.8058 20.4575 31.8183 20.4313 31.836 20.4089C31.8538 20.3864 31.8765 20.3683 31.9022 20.3559C31.928 20.3434 31.9563 20.3369 31.9849 20.3369C32.0136 20.3369 32.0418 20.3434 32.0676 20.3559C32.0934 20.3683 32.116 20.3864 32.1338 20.4089C32.1516 20.4313 32.1641 20.4575 32.1703 20.4854C32.1766 20.5133 32.1764 20.5423 32.1699 20.5702V52.7702C32.17 52.8189 32.1514 52.8658 32.1179 52.9012C32.0844 52.9365 32.0385 52.9577 31.9899 52.9602Z" fill="black"/>
<path d="M30.0898 51.4405C30.0474 51.4927 29.9941 51.5349 29.9337 51.5643C29.8732 51.5937 29.807 51.6094 29.7398 51.6105C29.6231 51.6105 29.5112 51.5641 29.4287 51.4816C29.3461 51.3991 29.2998 51.2872 29.2998 51.1705C29.2998 51.0538 29.3461 50.9419 29.4287 50.8593C29.5112 50.7768 29.6231 50.7305 29.7398 50.7305C29.8565 50.7305 29.9684 50.7768 30.0509 50.8593C30.1334 50.9419 30.1798 51.0538 30.1798 51.1705C30.176 51.2672 30.1448 51.3608 30.0898 51.4405Z" fill="black"/>
<path d="M28.3502 28.5897H19.6102C19.5624 28.5897 19.5167 28.5708 19.4829 28.537C19.4491 28.5032 19.4302 28.4575 19.4302 28.4097C19.4301 28.361 19.4488 28.3142 19.4823 28.2788C19.5158 28.2434 19.5615 28.2223 19.6102 28.2197H28.3502C28.3988 28.2223 28.4446 28.2434 28.4781 28.2788C28.5116 28.3142 28.5302 28.361 28.5302 28.4097C28.5302 28.4575 28.5112 28.5032 28.4775 28.537C28.4437 28.5708 28.3979 28.5897 28.3502 28.5897Z" fill="black"/>
<path d="M40.7298 28.5897H31.9998C31.9762 28.5897 31.9528 28.5851 31.9309 28.576C31.9091 28.567 31.8893 28.5537 31.8725 28.537C31.8558 28.5203 31.8426 28.5004 31.8335 28.4786C31.8245 28.4568 31.8198 28.4334 31.8198 28.4097C31.8198 28.361 31.8384 28.3142 31.8719 28.2788C31.9054 28.2434 31.9512 28.2223 31.9998 28.2197H40.7298C40.7794 28.2222 40.8264 28.2429 40.8615 28.2781C40.8966 28.3132 40.9174 28.3601 40.9198 28.4097C40.9173 28.4584 40.8961 28.5042 40.8608 28.5377C40.8254 28.5712 40.7785 28.5898 40.7298 28.5897Z" fill="black"/>
<path d="M28.3502 41.2702H19.6102C19.5624 41.2702 19.5167 41.2512 19.4829 41.2174C19.4491 41.1837 19.4302 41.1379 19.4302 41.0901C19.4302 41.0424 19.4491 40.9966 19.4829 40.9629C19.5167 40.9291 19.5624 40.9102 19.6102 40.9102H28.3502C28.3979 40.9102 28.4437 40.9291 28.4775 40.9629C28.5112 40.9966 28.5302 41.0424 28.5302 41.0901C28.5302 41.1379 28.5112 41.1837 28.4775 41.2174C28.4437 41.2512 28.3979 41.2702 28.3502 41.2702Z" fill="black"/>
<path d="M40.7298 41.2702H31.9998C31.9521 41.2702 31.9063 41.2512 31.8725 41.2174C31.8388 41.1837 31.8198 41.1379 31.8198 41.0901C31.8198 41.0424 31.8388 40.9966 31.8725 40.9629C31.9063 40.9291 31.9521 40.9102 31.9998 40.9102H40.7298C40.7776 40.9102 40.8233 40.9291 40.8571 40.9629C40.8909 40.9966 40.9098 41.0424 40.9098 41.0901C40.9098 41.1379 40.8909 41.1837 40.8571 41.2174C40.8233 41.2512 40.7776 41.2702 40.7298 41.2702Z" fill="black"/>
</g>
<defs>
<clipPath id="clip0">
<rect width="44.34" height="46.62" fill="white" transform="translate(8 7)"/>
</clipPath>
</defs>
</svg>