<svg xmlns="http://www.w3.org/2000/svg" fill="none" viewBox="8 6.99 44.37 46.64">
<g clip-path="url(#clip0)">
<path d="M32.55 35.2901C32.4005 35.2901 32.257 35.2314 32.1504 35.1267C32.0438 35.0219 31.9826 34.8795 31.98 34.7301V26.6501C31.98 26.4989 32.04 26.3539 32.1469 26.247C32.2538 26.1401 32.3988 26.0801 32.55 26.0801C32.7011 26.0801 32.8461 26.1401 32.953 26.247C33.0599 26.3539 33.12 26.4989 33.12 26.6501V34.7301C33.1174 34.8795 33.0562 35.0219 32.9495 35.1267C32.8429 35.2314 32.6994 35.2901 32.55 35.2901Z" fill="black"/>
<path d="M27.6401 35.2899C27.4916 35.2899 27.3491 35.2309 27.2441 35.1259C27.1391 35.0209 27.0801 34.8785 27.0801 34.7299V26.6499C27.0983 26.513 27.1657 26.3874 27.2696 26.2964C27.3735 26.2054 27.507 26.1553 27.6451 26.1553C27.7832 26.1553 27.9166 26.2054 28.0206 26.2964C28.1245 26.3874 28.1918 26.513 28.2101 26.6499V34.7299C28.2101 34.8043 28.1953 34.878 28.1665 34.9466C28.1378 35.0152 28.0956 35.0774 28.0425 35.1295C27.9895 35.1816 27.9266 35.2227 27.8575 35.2502C27.7884 35.2778 27.7145 35.2913 27.6401 35.2899Z" fill="black"/>
<path d="M18.9101 35.0897L19.6301 23.1797L19.7601 35.1097L19.7701 35.5397L18.8901 35.5197L18.9101 35.0897Z" fill="black"/>
<path d="M40.5801 35.1097L40.7201 23.1797L41.4301 35.0897L41.4601 35.5197L40.5801 35.5397V35.1097Z" fill="black"/>
<path d="M30.17 8.14023C31.9476 8.20388 33.6405 8.9152 34.93 10.1402C35.4557 10.7674 35.8475 11.4955 36.0814 12.2796C36.3153 13.0638 36.3863 13.8876 36.29 14.7002C36.1809 16.6525 35.8454 18.5855 35.29 20.4602L35.15 20.8902L39.75 22.8102L41.62 23.6102C42.3468 23.9259 42.9507 24.4701 43.34 25.1602C44.1 26.4902 44.9 27.8102 45.66 29.0902C48.47 33.7402 51.12 38.1402 50.81 40.8702C50.5732 41.8234 50.6397 42.8266 51 43.7402C51.1405 44.0945 51.2215 44.4696 51.24 44.8502C51.2522 45.7447 51.2189 46.6392 51.14 47.5302C51.14 48.1902 51.05 48.8702 51.03 49.5302H45.59C45.59 49.3502 45.59 49.1502 45.65 48.9402C45.8526 48.0546 45.7722 47.1277 45.42 46.2902C45.2082 45.9505 45.0908 45.5604 45.08 45.1602C45.1044 44.7609 45.1714 44.3653 45.28 43.9802C45.3792 43.6551 45.4396 43.3195 45.46 42.9802C45.4146 42.1164 45.1459 41.2791 44.68 40.5502L44.51 40.2602L41.56 34.7402L40.62 34.9802V50.7002H19.76V34.9902L18.82 34.7502L15.82 40.3302L15.69 40.5602C15.2186 41.2865 14.9494 42.1253 14.91 42.9902C14.9218 43.3297 14.9789 43.666 15.08 43.9902C15.1965 44.3739 15.267 44.77 15.29 45.1702C15.2789 45.5596 15.165 45.9391 14.96 46.2702C14.5926 47.1175 14.5051 48.0598 14.71 48.9602C14.71 49.1602 14.71 49.3602 14.78 49.5402H9.33004C9.33004 48.8802 9.27004 48.2002 9.22004 47.5402C9.16004 46.5402 9.09004 45.6202 9.12004 44.8702C9.14659 44.4897 9.23088 44.1154 9.37004 43.7602C9.72772 42.8318 9.79057 41.8157 9.55004 40.8502C9.25004 38.1602 11.89 33.7602 14.7 29.1102C15.47 27.8302 16.26 26.5102 17.03 25.1802C17.4171 24.4883 18.0217 23.9434 18.75 23.6302L20.62 22.8302L25.21 20.9102L25.07 20.4802C24.5134 18.6092 24.1777 16.6794 24.07 14.7302C23.9724 13.916 24.0427 13.0904 24.2766 12.3043C24.5105 11.5183 24.9031 10.7886 25.43 10.1602C26.717 8.93744 28.406 8.2263 30.18 8.16023L30.17 8.14023ZM30.18 7.02023C28.093 7.10205 26.111 7.95756 24.62 9.42023C23.9851 10.1564 23.5105 11.0168 23.2264 11.9465C22.9423 12.8762 22.855 13.8549 22.97 14.8202C23.0802 16.6672 23.3853 18.4974 23.88 20.2802L20.24 21.8002L18.36 22.6102C17.4117 23.0172 16.6193 23.7184 16.1 24.6102C15.34 25.9302 14.56 27.2402 13.79 28.5102C10.79 33.5602 8.14004 37.9102 8.49004 40.9702C8.48519 41 8.48519 41.0304 8.49004 41.0602C8.69183 41.8354 8.64282 42.6546 8.35004 43.4002C8.16652 43.8559 8.0617 44.3395 8.04004 44.8302C8.04004 45.6402 8.04004 46.6502 8.14004 47.6202V47.6802C8.14004 48.3102 8.22004 48.9602 8.24004 49.5902C8.25041 49.8829 8.37402 50.1602 8.58482 50.3635C8.79563 50.5669 9.07715 50.6804 9.37004 50.6802H14.82C14.9754 50.6806 15.1292 50.649 15.2718 50.5872C15.4144 50.5255 15.5427 50.4351 15.6487 50.3215C15.7548 50.2079 15.8363 50.0737 15.8881 49.9273C15.94 49.7808 15.961 49.6252 15.95 49.4702C15.95 49.2902 15.95 49.0802 15.88 48.8702C15.7262 48.2066 15.7644 47.513 15.99 46.8702C16.2864 46.3627 16.4482 45.7878 16.46 45.2002C16.4396 44.7122 16.3589 44.2285 16.22 43.7602C16.1532 43.5246 16.1064 43.2837 16.08 43.0402C16.1174 42.3715 16.3351 41.7253 16.71 41.1702C16.78 41.0302 16.83 40.9502 16.88 40.8602L18.65 37.5402V50.7402C18.6526 51.0391 18.7725 51.325 18.9839 51.5364C19.1952 51.7477 19.4812 51.8676 19.78 51.8702H40.6C40.9007 51.8702 41.1891 51.7515 41.4026 51.5399C41.6161 51.3282 41.7374 51.0408 41.74 50.7402V37.5202L43.49 40.8102L43.68 41.1302C44.047 41.6959 44.2607 42.3471 44.3 43.0202C44.2794 43.2613 44.2324 43.4994 44.16 43.7302C44.0299 44.2039 43.9495 44.6899 43.92 45.1802C43.936 45.7916 44.1118 46.388 44.43 46.9102C44.6319 47.5274 44.6596 48.1883 44.51 48.8202C44.51 49.0502 44.45 49.2702 44.44 49.4602C44.4257 49.6159 44.4441 49.7728 44.494 49.9209C44.544 50.069 44.6244 50.2051 44.73 50.3202C44.8384 50.434 44.9687 50.5246 45.1131 50.5864C45.2575 50.6483 45.4129 50.6802 45.57 50.6802H51.01C51.3037 50.683 51.5867 50.5703 51.798 50.3664C52.0094 50.1625 52.1322 49.8838 52.14 49.5902C52.14 48.9402 52.21 48.2702 52.25 47.5902C52.32 46.5902 52.39 45.5902 52.36 44.8002C52.3286 44.3108 52.2241 43.8288 52.05 43.3702C51.7605 42.6382 51.708 41.8337 51.9 41.0702C51.9049 41.0404 51.9049 41.01 51.9 40.9802C52.26 37.8802 49.64 33.5302 46.61 28.4902L46.51 28.3302C45.78 27.1102 45.02 25.8502 44.29 24.5802C43.7759 23.6842 42.9819 22.9816 42.03 22.5802L40.17 21.7802L36.51 20.2502C37.0152 18.4625 37.3237 16.6249 37.43 14.7702C37.5409 13.8074 37.4505 12.8321 37.1648 11.906C36.879 10.9799 36.4041 10.1232 35.77 9.39023C34.2812 7.92431 32.298 7.06823 30.21 6.99023L30.18 7.02023Z" fill="black"/>
<path d="M19 49.7197H41.15V49.8597C41.15 50.5466 40.8771 51.2054 40.3914 51.6911C39.9057 52.1769 39.2469 52.4497 38.56 52.4497H21.63C21.2865 52.455 20.9454 52.392 20.6266 52.2642C20.3077 52.1364 20.0174 51.9465 19.7727 51.7054C19.5279 51.4644 19.3336 51.1771 19.2009 50.8602C19.0683 50.5433 19 50.2032 19 49.8597V49.7197Z" fill="white"/>
<path d="M40.5799 49.5098V50.7098C40.5799 51.8998 35.3799 52.4998 30.1699 52.4998C24.9599 52.4998 19.7699 51.8998 19.7699 50.7098V49.5098H18.6299V50.7098C18.6299 51.5098 18.6299 53.6298 30.1699 53.6298C41.7099 53.6298 41.7199 51.5098 41.7199 50.7098V49.5098H40.5799Z" fill="black"/>
<path d="M35.5801 13.9298C35.5801 19.6398 32.2001 19.4698 30.1001 19.4698C28.0001 19.4698 24.6201 19.6398 24.6201 13.9298C24.6201 10.7198 27.1801 9.34977 30.1001 9.25977C33.0101 9.34977 35.5801 10.7198 35.5801 13.9298Z" fill="black"/>
<path d="M30.1801 23.3703C27.6701 23.3003 25.7801 22.3703 24.8501 20.8403C24.827 20.7987 24.8203 20.75 24.8314 20.7037C24.8425 20.6574 24.8706 20.6169 24.9101 20.5903C24.931 20.578 24.9542 20.5701 24.9782 20.5669C25.0023 20.5638 25.0267 20.5656 25.05 20.5721C25.0734 20.5786 25.0952 20.5898 25.1141 20.605C25.133 20.6202 25.1487 20.639 25.1601 20.6604C26.0201 22.1104 27.8101 22.9404 30.1601 23.0104C32.5101 23.0804 34.3101 22.1104 35.1601 20.6604C35.1851 20.6192 35.2249 20.589 35.2713 20.576C35.3177 20.563 35.3673 20.5681 35.4101 20.5903C35.4496 20.6169 35.4777 20.6574 35.4888 20.7037C35.4999 20.75 35.4933 20.7987 35.4701 20.8403C34.5701 22.4403 32.6801 23.3003 30.1801 23.3703Z" fill="black"/>
<path d="M19.0401 47.4398C18.9952 47.4466 18.9493 47.4362 18.9117 47.4106C18.8742 47.3851 18.8477 47.3462 18.8375 47.3019C18.8274 47.2576 18.8344 47.2111 18.8571 47.1718C18.8799 47.1324 18.9167 47.1031 18.9601 47.0898L25.4301 44.0898V40.6398L19.1201 43.6398C19.0746 43.658 19.0241 43.6589 18.978 43.6423C18.9319 43.6257 18.8935 43.5928 18.8701 43.5498C18.8519 43.5043 18.851 43.4537 18.8676 43.4077C18.8842 43.3616 18.9171 43.3232 18.9601 43.2998L25.5401 40.1898C25.566 40.1749 25.5953 40.167 25.6251 40.167C25.655 40.167 25.6843 40.1749 25.7101 40.1898C25.7388 40.205 25.7626 40.2282 25.7786 40.2566C25.7945 40.2849 25.802 40.3173 25.8001 40.3498V44.1498C25.7986 44.1853 25.7876 44.2198 25.7682 44.2497C25.7489 44.2796 25.7219 44.3038 25.6901 44.3198L19.1201 47.4398C19.0942 47.4489 19.066 47.4489 19.0401 47.4398Z" fill="black"/>
<path d="M41.1499 47.4399C41.1239 47.4483 41.0959 47.4483 41.0699 47.4399L34.4999 44.3499C34.4681 44.3339 34.4412 44.3098 34.4218 44.2799C34.4025 44.25 34.3915 44.2155 34.3899 44.1799V40.3799C34.388 40.3474 34.3955 40.3151 34.4115 40.2867C34.4274 40.2584 34.4512 40.2352 34.4799 40.2199C34.5076 40.205 34.5385 40.1973 34.5699 40.1973C34.6013 40.1973 34.6323 40.205 34.6599 40.2199L41.2299 43.3299C41.253 43.3395 41.2738 43.3539 41.291 43.372C41.3083 43.3901 41.3215 43.4116 41.33 43.4351C41.3385 43.4586 41.342 43.4836 41.3402 43.5086C41.3385 43.5335 41.3316 43.5578 41.3199 43.5799C41.2983 43.6246 41.26 43.6591 41.2133 43.6759C41.1666 43.6927 41.1151 43.6906 41.0699 43.6699L34.7599 40.6699V44.0599L41.2299 47.0599C41.2527 47.0684 41.2733 47.0817 41.2905 47.0989C41.3077 47.1161 41.321 47.1367 41.3295 47.1595C41.3381 47.1822 41.3416 47.2065 41.34 47.2307C41.3383 47.255 41.3315 47.2786 41.3199 47.2999C41.3111 47.3388 41.2896 47.3736 41.2588 47.399C41.2281 47.4243 41.1898 47.4387 41.1499 47.4399Z" fill="black"/>
<path d="M30.0999 53.2395C30.0247 53.2409 29.9499 53.2271 29.8802 53.1989C29.8104 53.1707 29.747 53.1288 29.6938 53.0756C29.6406 53.0224 29.5987 52.959 29.5705 52.8893C29.5424 52.8195 29.5285 52.7448 29.5299 52.6695V18.9695C29.5192 18.889 29.5258 18.8072 29.5492 18.7294C29.5727 18.6517 29.6125 18.5798 29.666 18.5187C29.7195 18.4576 29.7855 18.4087 29.8594 18.3751C29.9334 18.3416 30.0137 18.3242 30.0949 18.3242C30.1761 18.3242 30.2564 18.3416 30.3304 18.3751C30.4043 18.4087 30.4703 18.4576 30.5238 18.5187C30.5773 18.5798 30.6171 18.6517 30.6406 18.7294C30.664 18.8072 30.6706 18.889 30.6599 18.9695V52.6695C30.6612 52.7439 30.6477 52.8178 30.6202 52.8869C30.5926 52.956 30.5516 53.0189 30.4995 53.072C30.4473 53.1251 30.3851 53.1672 30.3165 53.196C30.2479 53.2248 30.1743 53.2396 30.0999 53.2395Z" fill="black"/>
<path d="M40.7901 25.04H19.6001V25.4H40.7901V25.04Z" fill="black"/>
<path d="M36.7002 38.5204H23.4502C23.4025 38.519 23.3566 38.5013 23.3202 38.4704L20.9302 36.0704C20.9108 36.0549 20.8953 36.035 20.8849 36.0125C20.8745 35.9899 20.8695 35.9652 20.8702 35.9404V25.2304C20.8637 25.2025 20.8636 25.1735 20.8698 25.1456C20.8761 25.1176 20.8886 25.0915 20.9064 25.069C20.9242 25.0466 20.9468 25.0284 20.9726 25.016C20.9983 25.0035 21.0266 24.9971 21.0552 24.9971C21.0839 24.9971 21.1121 25.0035 21.1379 25.016C21.1637 25.0284 21.1863 25.0466 21.2041 25.069C21.2219 25.0915 21.2344 25.1176 21.2406 25.1456C21.2469 25.1735 21.2468 25.2025 21.2402 25.2304V35.8704L23.5302 38.1604H36.6302L38.9202 35.8704V25.2304C38.9202 25.1826 38.9392 25.1368 38.973 25.1031C39.0067 25.0693 39.0525 25.0504 39.1002 25.0504C39.148 25.0504 39.1938 25.0693 39.2275 25.1031C39.2613 25.1368 39.2802 25.1826 39.2802 25.2304V35.9404C39.2955 35.9824 39.2955 36.0284 39.2802 36.0704L36.8702 38.4404C36.8513 38.4673 36.8256 38.4888 36.7958 38.5029C36.766 38.5169 36.7331 38.5229 36.7002 38.5204Z" fill="black"/>
</g>
<defs>
<clipPath id="clip0">
<rect width="44.34" height="46.62" fill="white" transform="translate(8 7)"/>
</clipPath>
</defs>
</svg>