<svg xmlns="http://www.w3.org/2000/svg" fill="none" viewBox="8 7 44.38 46.63">
<g clip-path="url(#clip0)">
<path d="M32.03 23.3296C31.9941 23.3291 31.9593 23.3172 31.9305 23.2956C31.9018 23.2741 31.8806 23.244 31.87 23.2096C31.864 23.188 31.8623 23.1653 31.8651 23.143C31.8678 23.1206 31.875 23.0991 31.8862 23.0796C31.8973 23.06 31.9123 23.0429 31.9301 23.0292C31.9479 23.0155 31.9683 23.0054 31.99 22.9996C32.8227 22.8726 33.5995 22.5034 34.2237 21.9379C34.8478 21.3724 35.2917 20.6357 35.5 19.8196C35.5058 19.7979 35.5159 19.7775 35.5296 19.7597C35.5433 19.7418 35.5604 19.7269 35.58 19.7158C35.5995 19.7046 35.6211 19.6974 35.6434 19.6947C35.6657 19.6919 35.6884 19.6936 35.71 19.6996C35.7314 19.7042 35.7516 19.7132 35.7693 19.726C35.7871 19.7387 35.8021 19.7549 35.8133 19.7737C35.8245 19.7924 35.8318 19.8133 35.8347 19.8349C35.8376 19.8566 35.836 19.8786 35.83 19.8996C35.6065 20.7829 35.1262 21.5801 34.4499 22.1905C33.7735 22.801 32.9315 23.1974 32.03 23.3296Z" fill="black"/>
<path d="M28.18 23.3004H28.13C27.2603 23.1471 26.4539 22.744 25.8093 22.1403C25.1648 21.5365 24.7098 20.7583 24.5 19.9004C24.4911 19.8567 24.4997 19.8112 24.524 19.7738C24.5484 19.7364 24.5864 19.71 24.63 19.7004C24.651 19.6944 24.6731 19.6929 24.6947 19.6957C24.7164 19.6986 24.7372 19.7059 24.756 19.7171C24.7747 19.7284 24.791 19.7434 24.8037 19.7611C24.8164 19.7789 24.8254 19.7991 24.83 19.8204C25.0292 20.6174 25.4556 21.3394 26.0574 21.8987C26.6592 22.4579 27.4105 22.8302 28.22 22.9704C28.2418 22.9762 28.2621 22.9862 28.28 23C28.2978 23.0137 28.3127 23.0308 28.3239 23.0503C28.335 23.0699 28.3422 23.0914 28.345 23.1138C28.3478 23.1361 28.3461 23.1587 28.34 23.1804C28.3294 23.2148 28.3083 23.2449 28.2795 23.2664C28.2508 23.288 28.2159 23.2999 28.18 23.3004Z" fill="black"/>
<path d="M38.6799 39.3705C38.5287 39.3705 38.3837 39.3104 38.2768 39.2035C38.1699 39.0966 38.1099 38.9516 38.1099 38.8005V28.8005C38.1099 28.6493 38.1699 28.5043 38.2768 28.3974C38.3837 28.2905 38.5287 28.2305 38.6799 28.2305C38.831 28.2305 38.976 28.2905 39.0829 28.3974C39.1898 28.5043 39.2499 28.6493 39.2499 28.8005V38.8005C39.2499 38.9516 39.1898 39.0966 39.0829 39.2035C38.976 39.3104 38.831 39.3705 38.6799 39.3705Z" fill="black"/>
<path d="M21.5599 39.3696C21.4846 39.371 21.4099 39.3572 21.3401 39.329C21.2704 39.3008 21.207 39.2589 21.1538 39.2057C21.1006 39.1525 21.0587 39.0891 21.0305 39.0194C21.0023 38.9496 20.9885 38.8749 20.9899 38.7996V28.7996C20.9791 28.7191 20.9857 28.6373 21.0092 28.5595C21.0327 28.4818 21.0725 28.4099 21.126 28.3488C21.1795 28.2877 21.2454 28.2388 21.3194 28.2052C21.3934 28.1717 21.4736 28.1543 21.5549 28.1543C21.6361 28.1543 21.7164 28.1717 21.7903 28.2052C21.8643 28.2388 21.9302 28.2877 21.9837 28.3488C22.0372 28.4099 22.077 28.4818 22.1005 28.5595C22.124 28.6373 22.1306 28.7191 22.1199 28.7996V38.7996C22.1212 38.874 22.1077 38.9479 22.0801 39.017C22.0526 39.0861 22.0116 39.149 21.9594 39.2021C21.9073 39.2552 21.8451 39.2973 21.7765 39.3261C21.7079 39.3548 21.6343 39.3696 21.5599 39.3696Z" fill="black"/>
<path d="M18.9101 35.0897L19.6301 23.1797L19.7601 35.1097L19.7701 35.5397L18.8901 35.5197L18.9101 35.0897Z" fill="black"/>
<path d="M40.5801 35.1097L40.7201 23.1797L41.4301 35.0897L41.4601 35.5197L40.5801 35.5397V35.1097Z" fill="black"/>
<path d="M30.1698 8.13953C31.9438 8.20559 33.6328 8.91674 34.9198 10.1395C35.4501 10.7638 35.8449 11.4916 36.079 12.2766C36.3131 13.0616 36.3815 13.8867 36.2798 14.6995C36.1794 16.6528 35.8436 18.5868 35.2798 20.4595L35.1398 20.8895L39.7398 22.8095L41.5998 23.6095C42.3295 23.9246 42.9367 24.4687 43.3298 25.1595C44.0898 26.4895 44.8798 27.8095 45.6498 29.0895C48.4598 33.7395 51.0998 38.1395 50.7898 40.8695C50.5634 41.8236 50.6296 42.8237 50.9798 43.7395C51.1236 44.0933 51.2081 44.4683 51.2298 44.8495C51.242 45.744 51.2086 46.6385 51.1298 47.5295C51.1298 48.1895 51.0398 48.8695 51.0198 49.5295H45.5398C45.5398 49.3495 45.5398 49.1495 45.6098 48.9395C45.8124 48.0539 45.7319 47.127 45.3798 46.2895C45.1679 45.9492 45.0473 45.56 45.0298 45.1595C45.0577 44.7599 45.1281 44.3643 45.2398 43.9795C45.3409 43.6553 45.3981 43.319 45.4098 42.9795C45.3753 42.1137 45.1057 41.2737 44.6298 40.5495C44.5709 40.456 44.5175 40.3592 44.4698 40.2595L41.4698 34.7395L40.5298 34.9795V50.6995H19.7598V34.9895L18.8198 34.7495L15.8198 40.3295C15.7784 40.4093 15.7316 40.4861 15.6798 40.5595C15.214 41.2884 14.9452 42.1257 14.8998 42.9895C14.9203 43.3288 14.9807 43.6644 15.0798 43.9895C15.1935 44.3734 15.2606 44.7696 15.2798 45.1695C15.2694 45.5576 15.1592 45.9364 14.9598 46.2695C14.5924 47.1168 14.5048 48.0591 14.7098 48.9595C14.7098 49.1595 14.7098 49.3595 14.7698 49.5395H9.3498C9.3498 48.8795 9.2798 48.1995 9.2398 47.5395C9.16083 46.6518 9.12746 45.7606 9.1398 44.8695C9.16149 44.4883 9.24596 44.1133 9.3898 43.7595C9.74243 42.83 9.80519 41.8154 9.5698 40.8495C9.2598 38.1595 11.9098 33.7595 14.7098 29.1095C15.4798 27.8295 16.2798 26.5095 17.0398 25.1795C17.432 24.4917 18.035 23.9483 18.7598 23.6295L20.6398 22.8295L25.2298 20.9095L25.0898 20.4795C24.5271 18.6099 24.1914 16.6793 24.0898 14.7295C23.9908 13.916 24.0595 13.0908 24.2917 12.3048C24.5238 11.5188 24.9146 10.7887 25.4398 10.1595C26.7294 8.9345 28.4223 8.22319 30.1998 8.15953L30.1698 8.13953ZM30.1998 7.01953C28.1158 7.1019 26.1372 7.95751 24.6498 9.41953C24.0131 10.1549 23.5367 11.0149 23.2508 11.9446C22.965 12.8744 22.8761 13.8535 22.9898 14.8195C23.1006 16.6672 23.4091 18.4976 23.9098 20.2795L20.2698 21.7995L18.3898 22.6095C17.4414 23.0165 16.6491 23.7177 16.1298 24.6095C15.3698 25.9295 14.5798 27.2395 13.8198 28.5095C10.8198 33.5595 8.1598 37.9095 8.5098 40.9695C8.5098 40.9695 8.5098 41.0295 8.5098 41.0595C8.7091 41.8357 8.65658 42.6552 8.3598 43.3995C8.18491 43.8574 8.08365 44.34 8.0598 44.8295C8.04093 45.7607 8.07432 46.6921 8.1598 47.6195V47.6795C8.1598 48.3095 8.2498 48.9595 8.2698 49.5895C8.28017 49.8822 8.40378 50.1595 8.61459 50.3628C8.82539 50.5662 9.10691 50.6797 9.3998 50.6795H14.8398C14.9936 50.672 15.1443 50.6336 15.283 50.5667C15.4217 50.4999 15.5455 50.4058 15.6472 50.2902C15.7488 50.1745 15.8262 50.0396 15.8748 49.8935C15.9233 49.7474 15.942 49.593 15.9298 49.4395C15.9298 49.2595 15.9298 49.0495 15.8598 48.8395C15.7008 48.1764 15.7391 47.4812 15.9698 46.8395C16.2662 46.332 16.4279 45.7571 16.4398 45.1695C16.4193 44.6815 16.3387 44.1978 16.1998 43.7295C16.128 43.4951 16.0811 43.2538 16.0598 43.0095C16.0989 42.3426 16.3128 41.6977 16.6798 41.1395C16.7598 40.9995 16.8098 40.9195 16.8498 40.8295L18.6298 37.5095V50.7095C18.6298 51.0092 18.7489 51.2966 18.9608 51.5086C19.1727 51.7205 19.4601 51.8395 19.7598 51.8395H40.5798C40.8795 51.8395 41.1669 51.7205 41.3788 51.5086C41.5907 51.2966 41.7098 51.0092 41.7098 50.7095V37.5195L43.4698 40.8095L43.6498 41.1295C44.0246 41.6921 44.2421 42.3446 44.2798 43.0195C44.2542 43.2599 44.2073 43.4974 44.1398 43.7295C44.0001 44.2011 43.9195 44.6881 43.8998 45.1795C43.9157 45.7909 44.0916 46.3873 44.4098 46.9095C44.6131 47.5268 44.6374 48.189 44.4798 48.8195C44.4798 49.0495 44.4798 49.2695 44.4098 49.4595C44.3998 49.6157 44.4212 49.7722 44.4727 49.9199C44.5242 50.0676 44.6048 50.2035 44.7098 50.3195C44.8166 50.4325 44.9453 50.5227 45.0879 50.5846C45.2306 50.6465 45.3843 50.6788 45.5398 50.6795H51.0298C51.3227 50.6797 51.6042 50.5662 51.815 50.3628C52.0258 50.1595 52.1494 49.8822 52.1598 49.5895C52.1598 48.9395 52.2298 48.2695 52.2698 47.5895C52.3398 46.5895 52.3998 45.5895 52.3698 44.7995C52.326 44.3316 52.2114 43.873 52.0298 43.4395C51.7348 42.7087 51.6822 41.9025 51.8798 41.1395C51.8798 41.1395 51.8798 41.0795 51.8798 41.0495C52.2398 37.9495 49.6198 33.5995 46.5798 28.5595L46.4898 28.3995C45.7498 27.1795 44.9998 25.9195 44.2698 24.6495C43.7505 23.7577 42.9582 23.0565 42.0098 22.6495L40.1498 21.8495L36.4898 20.3195C36.9841 18.5294 37.2924 16.693 37.4098 14.8395C37.5248 13.8742 37.4375 12.8955 37.1534 11.9658C36.8693 11.0361 36.3947 10.1757 35.7598 9.43953C34.271 7.97361 32.2877 7.11753 30.1998 7.03954V7.01953Z" fill="black"/>
<path d="M19 49.7197H41.15V49.8597C41.15 50.5466 40.8771 51.2054 40.3914 51.6911C39.9057 52.1769 39.2469 52.4497 38.56 52.4497H21.63C21.2865 52.455 20.9454 52.392 20.6266 52.2642C20.3077 52.1364 20.0174 51.9465 19.7727 51.7054C19.5279 51.4644 19.3336 51.1771 19.2009 50.8602C19.0683 50.5433 19 50.2032 19 49.8597V49.7197Z" fill="white"/>
<path d="M40.5701 49.5098V50.7098C40.5701 51.8998 35.3701 52.4998 30.1601 52.4998C24.9501 52.4998 19.7601 51.8998 19.7601 50.7098V49.5098H18.6201V50.7098C18.6201 51.5098 18.6201 53.6298 30.1601 53.6298C41.7001 53.6298 41.7101 51.5098 41.7101 50.7098V49.5098H40.5701Z" fill="black"/>
<path d="M35.5699 13.9298C35.5699 19.6398 32.1999 19.4698 30.0899 19.4698C27.9799 19.4698 24.6099 19.6398 24.6099 13.9298C24.6099 10.7198 27.1799 9.34977 30.0899 9.25977C33.0299 9.34977 35.5699 10.7198 35.5699 13.9298Z" fill="black"/>
<path d="M29.8798 20.6805C29.8395 20.7356 29.7868 20.7805 29.7261 20.8118C29.6653 20.843 29.5982 20.8597 29.5298 20.8605C29.4428 20.8605 29.3578 20.8347 29.2854 20.7863C29.213 20.738 29.1566 20.6692 29.1233 20.5888C29.09 20.5084 29.0813 20.42 29.0983 20.3346C29.1153 20.2493 29.1572 20.1709 29.2187 20.1093C29.2803 20.0478 29.3587 20.0059 29.444 19.9889C29.5294 19.9719 29.6178 19.9806 29.6982 20.014C29.7786 20.0473 29.8473 20.1037 29.8957 20.176C29.944 20.2484 29.9698 20.3334 29.9698 20.4205C29.9677 20.5144 29.9363 20.6053 29.8798 20.6805Z" fill="black"/>
<path d="M29.8798 23.2498C29.8395 23.3049 29.7868 23.3499 29.7261 23.3811C29.6653 23.4124 29.5982 23.429 29.5298 23.4298C29.4428 23.4298 29.3578 23.404 29.2854 23.3557C29.213 23.3073 29.1566 23.2386 29.1233 23.1582C29.09 23.0778 29.0813 22.9893 29.0983 22.904C29.1153 22.8186 29.1572 22.7402 29.2187 22.6787C29.2803 22.6171 29.3587 22.5752 29.444 22.5583C29.5294 22.5413 29.6178 22.55 29.6982 22.5833C29.7786 22.6166 29.8473 22.673 29.8957 22.7453C29.944 22.8177 29.9698 22.9028 29.9698 22.9898C29.9677 23.0837 29.9363 23.1747 29.8798 23.2498Z" fill="black"/>
<path d="M29.8802 51.3496C29.8378 51.4018 29.7846 51.4441 29.7241 51.4735C29.6636 51.5028 29.5974 51.5186 29.5302 51.5196C29.4428 51.5196 29.3573 51.4935 29.2848 51.4447C29.2122 51.3959 29.1558 51.3266 29.1228 51.2456C29.0899 51.1646 29.0817 51.0757 29.0995 50.9901C29.1174 50.9044 29.1603 50.8261 29.2228 50.765C29.2853 50.7038 29.3647 50.6628 29.4507 50.6469C29.5367 50.6311 29.6254 50.6412 29.7056 50.6761C29.7858 50.7109 29.8539 50.7689 29.901 50.8425C29.9481 50.9162 29.9722 51.0022 29.9702 51.0896C29.9662 51.1832 29.9349 51.2736 29.8802 51.3496Z" fill="black"/>
<path d="M28.2701 53.3798C28.2214 53.3798 28.1745 53.3612 28.1391 53.3277C28.1038 53.2942 28.0826 53.2484 28.0801 53.1998V19.4398C28.0826 19.3911 28.1038 19.3453 28.1391 19.3118C28.1745 19.2783 28.2214 19.2597 28.2701 19.2598C28.3178 19.2598 28.3636 19.2787 28.3974 19.3125C28.4311 19.3462 28.4501 19.392 28.4501 19.4398V53.1698C28.4545 53.1958 28.4531 53.2224 28.446 53.2479C28.439 53.2733 28.4264 53.2969 28.4093 53.3169C28.3921 53.337 28.3707 53.353 28.3467 53.3638C28.3226 53.3747 28.2965 53.3801 28.2701 53.3798Z" fill="black"/>
<path d="M31.8902 53.3798C31.8415 53.3798 31.7946 53.3612 31.7593 53.3277C31.7239 53.2942 31.7028 53.2484 31.7002 53.1998V19.4398C31.7028 19.3911 31.7239 19.3453 31.7593 19.3118C31.7946 19.2783 31.8415 19.2597 31.8902 19.2598C31.9307 19.269 31.9668 19.292 31.9923 19.3248C32.0179 19.3576 32.0312 19.3982 32.0302 19.4398V53.1698C32.0391 53.2161 32.0294 53.2641 32.0032 53.3034C31.977 53.3427 31.9364 53.3701 31.8902 53.3798Z" fill="black"/>
<path d="M19.0298 47.9199C18.9937 47.9207 18.9582 47.9107 18.9278 47.8911C18.8975 47.8715 18.8738 47.8432 18.8598 47.8099C18.8481 47.7878 18.8412 47.7635 18.8395 47.7385C18.8377 47.7136 18.8412 47.6886 18.8497 47.6651C18.8582 47.6416 18.8714 47.6201 18.8887 47.6019C18.9059 47.5838 18.9267 47.5695 18.9498 47.5599L26.4498 44.0299V40.6399L19.0298 44.1499C19.0084 44.1614 18.9848 44.1683 18.9606 44.1699C18.9363 44.1716 18.912 44.168 18.8893 44.1595C18.8666 44.151 18.8459 44.1377 18.8287 44.1205C18.8116 44.1033 18.7983 44.0826 18.7898 44.0599C18.7781 44.0378 18.7712 44.0135 18.7695 43.9885C18.7677 43.9636 18.7712 43.9386 18.7797 43.9151C18.7882 43.8916 18.8014 43.8701 18.8187 43.8519C18.8359 43.8338 18.8567 43.8195 18.8798 43.8099L26.5598 40.1799C26.5874 40.165 26.6184 40.1572 26.6498 40.1572C26.6812 40.1572 26.7121 40.165 26.7398 40.1799C26.7659 40.1973 26.787 40.2212 26.8011 40.2493C26.8151 40.2773 26.8215 40.3086 26.8198 40.3399V44.1399C26.8183 44.1743 26.8084 44.2077 26.791 44.2374C26.7735 44.267 26.7491 44.2919 26.7198 44.3099L19.0298 47.8999V47.9199Z" fill="black"/>
<path d="M41.1699 47.9202H41.0899L33.4799 44.3402C33.4481 44.3242 33.4211 44.3 33.4018 44.2701C33.3825 44.2402 33.3715 44.2057 33.3699 44.1702V40.3702C33.368 40.3377 33.3755 40.3053 33.3915 40.277C33.4074 40.2486 33.4312 40.2254 33.4599 40.2102C33.4876 40.1953 33.5185 40.1875 33.5499 40.1875C33.5813 40.1875 33.6123 40.1953 33.6399 40.2102L41.3199 43.8402C41.3629 43.8636 41.3958 43.902 41.4124 43.9481C41.429 43.9941 41.4281 44.0447 41.4099 44.0902C41.4003 44.1132 41.386 44.1341 41.3679 44.1513C41.3498 44.1685 41.3283 44.1818 41.3048 44.1903C41.2812 44.1987 41.2562 44.2022 41.2313 44.2005C41.2063 44.1987 41.182 44.1918 41.1599 44.1802L33.7399 40.6702V44.0602L41.2499 47.5902C41.2929 47.6136 41.3258 47.652 41.3424 47.6981C41.359 47.7441 41.3581 47.7947 41.3399 47.8402C41.3203 47.8664 41.2945 47.8874 41.2649 47.9014C41.2353 47.9153 41.2026 47.9218 41.1699 47.9202Z" fill="black"/>
<path d="M28.2702 27.61H19.6302C19.5825 27.61 19.5367 27.591 19.5029 27.5573C19.4692 27.5235 19.4502 27.4777 19.4502 27.43C19.4502 27.3823 19.4692 27.3365 19.5029 27.3027C19.5367 27.269 19.5825 27.25 19.6302 27.25H28.2702C28.3179 27.25 28.3637 27.269 28.3975 27.3027C28.4312 27.3365 28.4502 27.3823 28.4502 27.43C28.4502 27.4777 28.4312 27.5235 28.3975 27.5573C28.3637 27.591 28.3179 27.61 28.2702 27.61Z" fill="black"/>
<path d="M40.6201 27.61H32.0301C31.9824 27.61 31.9366 27.591 31.9028 27.5573C31.8691 27.5235 31.8501 27.4777 31.8501 27.43C31.8501 27.3823 31.8691 27.3365 31.9028 27.3027C31.9366 27.269 31.9824 27.25 32.0301 27.25H40.6701C40.7178 27.25 40.7636 27.269 40.7974 27.3027C40.8311 27.3365 40.8501 27.3823 40.8501 27.43C40.8501 27.4777 40.8311 27.5235 40.7974 27.5573C40.7636 27.591 40.7178 27.61 40.6701 27.61H40.6201Z" fill="black"/>
</g>
<defs>
<clipPath id="clip0">
<rect width="44.34" height="46.62" fill="white" transform="translate(8 7)"/>
</clipPath>
</defs>
</svg>