<svg xmlns="http://www.w3.org/2000/svg" fill="none" viewBox="8 7 44.4 46.63">
<g clip-path="url(#clip0)">
<path d="M18.9101 35.0897L19.6301 23.1797L19.7601 35.1097L19.7701 35.5397L18.8901 35.5197L18.9101 35.0897Z" fill="black"/>
<path d="M40.5801 35.1097L40.7201 23.1797L41.4301 35.0897L41.4601 35.5197L40.5801 35.5397V35.1097Z" fill="black"/>
<path d="M30.1698 8.13953C31.9474 8.20318 33.6403 8.91449 34.9298 10.1395C35.4555 10.7667 35.8474 11.4948 36.0812 12.2789C36.3151 13.0631 36.3861 13.8869 36.2899 14.6995C36.1865 16.6524 35.8508 18.5861 35.2899 20.4595L35.1498 20.8895L39.7498 22.8095L41.6198 23.6095C42.3466 23.9252 42.9505 24.4694 43.3398 25.1595C44.1098 26.4895 44.8998 27.8095 45.6698 29.0895C48.4698 33.7395 51.1198 38.1395 50.8098 40.8695C50.5731 41.8227 50.6395 42.8259 50.9998 43.7395C51.1403 44.0938 51.2213 44.4689 51.2398 44.8495C51.252 45.744 51.2187 46.6385 51.1398 47.5295C51.1398 48.1895 51.0498 48.8695 51.0298 49.5295H45.5898C45.5898 49.3495 45.5898 49.1495 45.6498 48.9395C45.8524 48.0539 45.772 47.127 45.4198 46.2895C45.213 45.9476 45.0961 45.5588 45.0798 45.1595C45.1042 44.7602 45.1712 44.3646 45.2798 43.9795C45.3838 43.6556 45.4443 43.3193 45.4598 42.9795C45.4144 42.1157 45.1457 41.2784 44.6798 40.5495C44.621 40.456 44.5676 40.3592 44.5198 40.2595L41.5198 34.7395L40.5798 34.9795V50.6995H19.8098V34.9895L18.8698 34.7495L15.8698 40.3295L15.7398 40.5595C15.274 41.2884 15.0053 42.1257 14.9598 42.9895C14.9764 43.3285 15.0335 43.6642 15.1299 43.9895C15.2464 44.3732 15.3168 44.7693 15.3398 45.1695C15.3287 45.5589 15.2149 45.9384 15.0099 46.2695C14.6458 47.1179 14.5617 48.0602 14.7698 48.9595C14.7698 49.1595 14.8198 49.3595 14.8298 49.5395H9.37985C9.37985 48.8795 9.31984 48.1995 9.26984 47.5395C9.20984 46.5395 9.13983 45.6195 9.16983 44.8695C9.19637 44.489 9.28067 44.1147 9.41983 43.7595C9.77751 42.8311 9.84038 41.815 9.59985 40.8495C9.29985 38.1595 11.9498 33.7595 14.7498 29.1095C15.5198 27.8295 16.3098 26.5095 17.0798 25.1795C17.4692 24.4894 18.0731 23.9452 18.7998 23.6295L20.6698 22.8295L25.2698 20.9095L25.1198 20.4795C24.5632 18.6085 24.2275 16.6787 24.1198 14.7295C24.0222 13.9153 24.0925 13.0897 24.3264 12.3036C24.5603 11.5176 24.9529 10.7879 25.4799 10.1595C26.7669 8.93674 28.4558 8.2256 30.2299 8.15953L30.1698 8.13953ZM30.2299 7.01953C28.1428 7.10135 26.1608 7.95686 24.6698 9.41953C24.0375 10.1573 23.5646 11.0179 23.2806 11.9471C22.9967 12.8764 22.9079 13.8543 23.0198 14.8195C23.13 16.6665 23.4351 18.4967 23.9298 20.2795L20.2899 21.7995L18.4099 22.6095C17.4615 23.0165 16.6691 23.7177 16.1498 24.6095C15.3998 25.9295 14.6099 27.2395 13.8499 28.5095C10.8499 33.5595 8.18986 37.9095 8.53986 40.9695C8.535 40.9993 8.535 41.0297 8.53986 41.0595C8.74165 41.8347 8.69262 42.6539 8.39984 43.3995C8.21632 43.8552 8.1115 44.3388 8.08984 44.8295C8.08984 45.6395 8.08985 46.6495 8.18985 47.6195V47.6795C8.18985 48.3095 8.26986 48.9595 8.28986 49.5895C8.30022 49.8822 8.42384 50.1595 8.63464 50.3628C8.84545 50.5662 9.12694 50.6797 9.41983 50.6795H14.8098C14.9652 50.6799 15.119 50.6483 15.2616 50.5865C15.4042 50.5248 15.5325 50.4344 15.6385 50.3208C15.7446 50.2072 15.8261 50.073 15.8779 49.9266C15.9298 49.7801 15.9509 49.6245 15.9398 49.4695C15.9398 49.2895 15.9399 49.0795 15.8799 48.8695C15.7183 48.2073 15.753 47.5123 15.9799 46.8695C16.2859 46.3661 16.4484 45.7886 16.4499 45.1995C16.4294 44.7115 16.3487 44.2278 16.2098 43.7595C16.143 43.5239 16.0962 43.283 16.0699 43.0395C16.1072 42.3708 16.3249 41.7246 16.6999 41.1695C16.7799 41.0295 16.8298 40.9495 16.8698 40.8595L18.6398 37.5395V50.7395C18.6503 51.0402 18.7791 51.3245 18.9983 51.5305C19.2174 51.7365 19.5091 51.8476 19.8098 51.8395H40.6299C40.9305 51.8395 41.2189 51.7208 41.4324 51.5092C41.6459 51.2975 41.7672 51.0101 41.7698 50.7095V37.5195L43.5298 40.8095C43.5298 40.8095 43.6498 41.0295 43.7098 41.1295C44.0846 41.6921 44.3021 42.3446 44.3398 43.0195C44.3098 43.26 44.2596 43.4975 44.1898 43.7295C44.0584 44.2026 43.9812 44.689 43.9598 45.1795C43.9685 45.7906 44.1412 46.3881 44.4598 46.9095C44.6617 47.5267 44.6894 48.1876 44.5399 48.8195C44.5399 49.0495 44.4798 49.2695 44.4698 49.4595C44.4549 49.616 44.4739 49.7739 44.5257 49.9224C44.5775 50.0708 44.6608 50.2063 44.7698 50.3195C44.8755 50.434 45.004 50.5251 45.1469 50.5871C45.2898 50.6491 45.4441 50.6805 45.5999 50.6795H51.0399C51.3345 50.6823 51.6185 50.5699 51.8315 50.3663C52.0444 50.1627 52.1694 49.884 52.1798 49.5895C52.1798 48.9395 52.2399 48.2695 52.2899 47.5895C52.3499 46.5895 52.4198 45.5895 52.3898 44.7995C52.3584 44.3101 52.2539 43.8281 52.0798 43.3695C51.7903 42.6375 51.7378 41.833 51.9298 41.0695C51.9298 41.0695 51.9298 41.0095 51.9298 40.9795C52.2798 37.8795 49.6599 33.5295 46.6299 28.4895L46.5298 28.3295C45.7998 27.1095 45.0398 25.8495 44.3098 24.5795C43.7965 23.6865 43.0069 22.9846 42.0598 22.5795L40.1898 21.7795L36.5298 20.2495C37.035 18.4618 37.3435 16.6242 37.4499 14.7695C37.5563 13.8161 37.4657 12.851 37.1835 11.9342C36.9014 11.0173 36.4338 10.1682 35.8098 9.43953C34.318 7.97214 32.331 7.11602 30.2398 7.03954L30.2299 7.01953Z" fill="black"/>
<path d="M19 49.7197H41.15V49.8597C41.15 50.5466 40.8771 51.2054 40.3914 51.6911C39.9057 52.1769 39.2469 52.4497 38.56 52.4497H21.63C21.2865 52.455 20.9454 52.392 20.6266 52.2642C20.3077 52.1364 20.0174 51.9465 19.7727 51.7054C19.5279 51.4644 19.3336 51.1771 19.2009 50.8602C19.0683 50.5433 19 50.2032 19 49.8597V49.7197Z" fill="white"/>
<path d="M40.5799 49.5098V50.7098C40.5799 51.8998 35.3799 52.4998 30.1699 52.4998C24.9599 52.4998 19.7699 51.8998 19.7699 50.7098V49.5098H18.6299V50.7098C18.6299 51.5098 18.6299 53.6298 30.1699 53.6298C41.7099 53.6298 41.7199 51.5098 41.7199 50.7098V49.5098H40.5799Z" fill="black"/>
<path d="M38.2199 38.1297C38.1175 38.1288 38.0173 38.0993 37.9308 38.0445C37.8442 37.9897 37.7746 37.9119 37.7299 37.8197L32.7299 27.1297C32.6996 27.0654 32.6822 26.9957 32.6788 26.9246C32.6755 26.8536 32.6862 26.7826 32.7103 26.7157C32.7345 26.6488 32.7716 26.5873 32.8196 26.5348C32.8676 26.4823 32.9255 26.4398 32.9899 26.4097C33.1213 26.3479 33.2718 26.3406 33.4085 26.3893C33.5452 26.438 33.6572 26.5388 33.7199 26.6697L38.7199 37.3497C38.7502 37.4154 38.7672 37.4863 38.77 37.5586C38.7728 37.6308 38.7613 37.7029 38.7363 37.7707C38.7112 37.8385 38.673 37.9007 38.6239 37.9537C38.5747 38.0067 38.5156 38.0495 38.4499 38.0797C38.3774 38.1116 38.2992 38.1287 38.2199 38.1297Z" fill="black"/>
<path d="M22.1302 38.13C22.0511 38.1277 21.9731 38.1107 21.9002 38.08C21.7693 38.0172 21.6685 37.9053 21.6198 37.7685C21.5711 37.6318 21.5784 37.4813 21.6402 37.35L26.6402 26.67C26.7012 26.5374 26.8123 26.4344 26.9492 26.3838C27.0861 26.3331 27.2376 26.339 27.3702 26.4C27.5028 26.461 27.6057 26.5722 27.6564 26.7091C27.707 26.846 27.7012 26.9974 27.6402 27.13L22.6402 37.82C22.5921 37.9137 22.519 37.9923 22.429 38.0471C22.339 38.1018 22.2355 38.1305 22.1302 38.13Z" fill="black"/>
<path d="M26.4302 25.2302C26.3102 25.2302 26.1002 24.8902 24.6802 20.2302C24.6725 20.2093 24.6693 20.1869 24.6708 20.1646C24.6722 20.1424 24.6783 20.1206 24.6887 20.1009C24.6991 20.0811 24.7134 20.0637 24.7309 20.0498C24.7484 20.0359 24.7686 20.0258 24.7902 20.0202C24.8112 20.0125 24.8335 20.0093 24.8558 20.0108C24.8781 20.0122 24.8998 20.0183 24.9196 20.0287C24.9394 20.0391 24.9568 20.0534 24.9706 20.0709C24.9845 20.0884 24.9946 20.1086 25.0002 20.1302C25.6102 22.1302 26.3802 24.4302 26.5602 24.8702H33.8102C34.0002 24.4202 34.8102 22.0902 35.3702 20.1302C35.3835 20.0865 35.4136 20.0498 35.4539 20.0282C35.4942 20.0066 35.5415 20.002 35.5852 20.0152C35.629 20.0285 35.6657 20.0586 35.6872 20.0989C35.7088 20.1392 35.7135 20.1865 35.7002 20.2302C34.1502 25.2302 34.0402 25.2302 33.8702 25.2302H26.4502H26.4302Z" fill="black"/>
<path d="M30.0901 24.5995C30.0184 24.6009 29.9471 24.5879 29.8804 24.5613C29.8138 24.5348 29.753 24.4952 29.7018 24.445C29.6506 24.3947 29.6099 24.3347 29.5822 24.2685C29.5544 24.2023 29.5401 24.1313 29.5402 24.0595V19.0595C29.5296 18.9818 29.5358 18.9027 29.5583 18.8275C29.5809 18.7523 29.6193 18.6829 29.6709 18.6237C29.7225 18.5646 29.7862 18.5173 29.8577 18.4848C29.9291 18.4523 30.0067 18.4355 30.0851 18.4355C30.1636 18.4355 30.2412 18.4523 30.3127 18.4848C30.3841 18.5173 30.4478 18.5646 30.4994 18.6237C30.551 18.6829 30.5894 18.7523 30.6119 18.8275C30.6345 18.9027 30.6407 18.9818 30.6302 19.0595V24.0595C30.6302 24.2028 30.5733 24.3401 30.472 24.4414C30.3707 24.5426 30.2334 24.5995 30.0901 24.5995Z" fill="black"/>
<path d="M40.8701 39.8599H19.4901C19.4451 39.8599 19.4018 39.842 19.3699 39.8101C19.3381 39.7782 19.3202 39.735 19.3202 39.6899C19.3187 39.6672 19.3221 39.6444 19.3301 39.6231C19.3381 39.6018 19.3506 39.5825 19.3667 39.5664C19.3828 39.5503 19.4021 39.5378 19.4234 39.5298C19.4447 39.5218 19.4674 39.5184 19.4901 39.5199H40.8701C40.9152 39.5199 40.9585 39.5378 40.9904 39.5697C41.0222 39.6015 41.0402 39.6448 41.0402 39.6899C41.0378 39.7342 41.0191 39.776 40.9877 39.8074C40.9563 39.8388 40.9145 39.8575 40.8701 39.8599Z" fill="black"/>
<path d="M23.7002 43.1304C23.1604 43.1277 22.6392 42.9327 22.2302 42.5804C21.9841 42.3689 21.7869 42.1064 21.6522 41.8112C21.5175 41.5159 21.4486 41.1949 21.4502 40.8704V39.6904H22.5802V40.8704C22.5788 41.0321 22.613 41.192 22.6804 41.3389C22.7478 41.4859 22.8467 41.6161 22.9702 41.7204C23.1715 41.898 23.4318 41.9943 23.7002 41.9904H36.9102C37.058 41.9931 37.2049 41.966 37.342 41.9107C37.4791 41.8554 37.6037 41.773 37.7082 41.6684C37.8128 41.5639 37.8951 41.4393 37.9505 41.3022C38.0058 41.1651 38.0329 41.0182 38.0302 40.8704V39.6904H39.1702V40.8704C39.1692 41.1945 39.0991 41.5147 38.9646 41.8095C38.8301 42.1044 38.6343 42.3672 38.3902 42.5804C37.9706 42.9348 37.4394 43.1296 36.8902 43.1304H23.7002Z" fill="black"/>
<path d="M35.6602 13.9298C35.6602 19.6398 32.2802 19.4698 30.1802 19.4698C28.0802 19.4698 24.7002 19.6398 24.7002 13.9298C24.7002 10.7198 27.2602 9.34977 30.1802 9.25977C33.0902 9.34977 35.6602 10.7198 35.6602 13.9298Z" fill="black"/>
</g>
<defs>
<clipPath id="clip0">
<rect width="44.34" height="46.62" fill="white" transform="translate(8 7)"/>
</clipPath>
</defs>
</svg>