<?xml version="1.0" encoding="UTF-8"?><svg xmlns="http://www.w3.org/2000/svg" xmlns:xlink="http://www.w3.org/1999/xlink" viewBox="0 0 45 48"><defs><path id="a" d="M.63.88h23.09V5H.63z"/></defs><g fill="none" fill-rule="evenodd"><path stroke="#000" stroke-linecap="round" stroke-linejoin="round" stroke-width="1.13" d="M18.57 22.26v8.88M25.77 22.26v8.88"/><path stroke="#000" stroke-linecap="round" stroke-linejoin="round" stroke-width=".34" d="M16.87 14.32c.6 1.97 1.56 4.87 1.62 4.86h1.78M27.47 14.32a67.48 67.48 0 01-1.62 4.86h-1.77"/><path fill="#000" d="M10.91 29.1l.72-11.92.13 11.93.01.42-.88-.02zM32.58 29.11l.14-11.93.71 11.91.03.42-.88.02z"/><path fill="#000" d="M22.17 1h-.03c-.36.01-3.53.16-5.56 2.4-1.24 1.34-1.8 3.16-1.65 5.4 0 0 .1 2.66.91 5.46l-3.64 1.52-1.88.8c-.95.42-1.73 1.12-2.26 2.03-.76 1.32-1.54 2.63-2.3 3.9C2.7 27.55.1 31.9.43 34.97l.02.09a3.75 3.75 0 01-.15 2.33c-.13.39-.28.83-.3 1.44-.03.81.03 1.81.1 2.79v.05c.05.63.09 1.29.1 1.91.03.61.53 1.1 1.14 1.1H6.8a1.13 1.13 0 001.13-1.21l-.07-.6c-.09-.73-.19-1.5.11-2.04.1-.14.47-.82.47-1.66 0-.5-.13-1.02-.24-1.45a3.7 3.7 0 01-.14-.71c.02-.83.37-1.44.63-1.88l.17-.3 1.77-3.32v13.2c0 .62.5 1.13 1.13 1.13h20.82c.63 0 1.13-.51 1.13-1.14V31.51l1.76 3.3.19.32c.25.44.6 1.05.62 1.88 0 .14-.07.44-.14.71-.1.43-.24.95-.24 1.45 0 .81.36 1.48.51 1.73.26.46.16 1.23.08 1.91-.03.23-.06.45-.07.65a1.13 1.13 0 001.13 1.22h5.44c.61 0 1.11-.49 1.13-1.1.02-.65.07-1.32.11-1.96.07-1.02.14-1.99.1-2.8-.02-.6-.17-1.04-.3-1.43-.2-.6-.38-1.1-.15-2.3l.01-.08c.36-3.1-2.26-7.46-5.3-12.5l-.1-.16a218.1 218.1 0 01-2.21-3.74 4.76 4.76 0 00-2.26-2.02l-1.86-.8-3.66-1.53c.77-2.66.9-5.19.92-5.49.14-2.21-.42-4.03-1.66-5.38-2.04-2.23-5.2-2.38-5.56-2.39h-.03zm0 1.13c.13 0 3 .1 4.76 2.03 1.02 1.11 1.47 2.65 1.36 4.56 0 .04-.13 2.94-1.04 5.75l-.14.44 4.6 1.92 1.87.8c.72.3 1.32.84 1.72 1.55.76 1.33 1.56 2.64 2.32 3.92 2.8 4.66 5.46 9.06 5.15 11.78a4.8 4.8 0 00.19 2.88c.12.36.23.67.24 1.11.03.74-.03 1.68-.1 2.67-.04.66-.09 1.34-.11 2h-5.44c0-.17.03-.37.06-.58.1-.81.23-1.83-.23-2.65-.02-.03-.35-.55-.34-1.14 0-.36.1-.79.2-1.17.1-.39.18-.72.18-1.02-.03-1.13-.5-1.94-.78-2.42a6.8 6.8 0 01-.17-.3l-2.95-5.51-.94.23V44.7H11.76V28.98l-.94-.23-2.98 5.57-.13.24c-.28.48-.76 1.3-.78 2.42-.01.3.07.63.17 1.02.1.38.2.81.2 1.17 0 .59-.32 1.1-.32 1.1-.48.86-.35 1.88-.25 2.7l.07.58H1.35c-.02-.67-.06-1.35-.1-2.01-.08-1-.14-1.93-.1-2.67 0-.44.11-.75.24-1.11.22-.66.48-1.4.18-2.92-.3-2.68 2.34-7.08 5.15-11.74.77-1.27 1.56-2.59 2.32-3.92.4-.7 1-1.24 1.73-1.55l1.87-.8 4.6-1.92-.15-.44a24.76 24.76 0 01-1.03-5.74c-.12-1.92.34-3.46 1.36-4.57 1.75-1.92 4.63-2.02 4.75-2.03z"/><path fill="#FFF" d="M30.56 46.45H13.63a2.59 2.59 0 01-2.6-2.6l.01-.13h22.11v.14a2.6 2.6 0 01-2.59 2.59"/><g transform="translate(10 42.62)"><mask id="b" fill="#fff"><use xlink:href="#a"/></mask><path fill="#000" d="M22.58.88v1.2c0 1.19-5.2 1.79-10.41 1.79-5.2 0-10.4-.6-10.4-1.79V.88H.63v1.2C.63 2.88.63 5 12.17 5c11.55 0 11.55-2.12 11.55-2.92V.88h-1.14z" mask="url(#b)"/></g><path fill="#000" d="M27.58 7.92c0 5.71-3.38 5.54-5.48 5.54-2.1 0-5.48.17-5.48-5.54 0-3.2 2.56-4.58 5.48-4.67 2.91.1 5.48 1.46 5.48 4.67M21.88 14.68c-.08.1-.2.17-.35.17a.44.44 0 11.35-.17M21.88 45.34a.44.44 0 11-.7-.52.44.44 0 01.7.52"/><path stroke="#000" stroke-linecap="round" stroke-linejoin="round" stroke-width=".37" d="M20.27 13.46V47.2M23.89 13.46V47.2"/><path stroke="#000" stroke-linecap="round" stroke-linejoin="round" stroke-width="1.13" d="M18.22 34.65l-6.81 4.5M26.12 34.65l6.81 4.5"/></g></svg>