<svg xmlns="http://www.w3.org/2000/svg" fill="none" viewBox="8 6.99 44.34 46.64">
<g clip-path="url(#clip0)">
<path d="M30.1201 23.5196C29.6077 23.5209 29.096 23.4808 28.5901 23.3996C27.6527 23.275 26.773 22.8764 26.0614 22.2537C25.3498 21.6311 24.8379 20.8121 24.5901 19.8996C24.5841 19.8785 24.5825 19.8565 24.5854 19.8349C24.5882 19.8132 24.5956 19.7923 24.6068 19.7736C24.618 19.7549 24.633 19.7386 24.6508 19.7259C24.6685 19.7132 24.6887 19.7042 24.7101 19.6996C24.7537 19.6899 24.7994 19.6969 24.8382 19.719C24.877 19.7412 24.9062 19.7771 24.9201 19.8196C25.3501 21.5496 26.5501 22.5796 28.7001 23.0696C29.7142 23.2245 30.7459 23.2245 31.7601 23.0696C33.8901 22.5896 35.1001 21.5596 35.5401 19.8296C35.5447 19.8082 35.5537 19.788 35.5664 19.7703C35.5791 19.7525 35.5953 19.7375 35.6141 19.7263C35.6328 19.715 35.6537 19.7078 35.6753 19.7049C35.697 19.702 35.719 19.7036 35.7401 19.7096C35.7623 19.713 35.7836 19.7211 35.8025 19.7333C35.8214 19.7455 35.8375 19.7616 35.8498 19.7805C35.862 19.7994 35.8702 19.8206 35.8737 19.8429C35.8772 19.8651 35.876 19.8878 35.8701 19.9096C35.6153 20.8273 35.0949 21.6492 34.3743 22.2719C33.6536 22.8947 32.765 23.2905 31.8201 23.4096C31.2567 23.4865 30.6886 23.5232 30.1201 23.5196Z" fill="black"/>
<path d="M18.9096 35.0897L19.6296 23.1797L19.7596 35.1097L19.7696 35.5397L18.8896 35.5197L18.9096 35.0897Z" fill="black"/>
<path d="M40.5801 35.1097L40.7201 23.1797L41.4301 35.0897L41.4601 35.5197L40.5801 35.5397V35.1097Z" fill="black"/>
<path d="M30.1703 8.14023C31.9443 8.20629 33.6333 8.91744 34.9203 10.1402C35.4506 10.7646 35.8454 11.4923 36.0795 12.2773C36.3136 13.0623 36.382 13.8874 36.2803 14.7002C36.1798 16.6535 35.8441 18.5875 35.2803 20.4602L35.1403 20.8902L39.7403 22.8102L41.6003 23.6102C42.3299 23.9253 42.9372 24.4694 43.3303 25.1602C44.0903 26.4902 44.8803 27.8102 45.6503 29.0902C48.4603 33.7402 51.1103 38.1402 50.7903 40.8702C50.5638 41.8243 50.63 42.8244 50.9803 43.7402C51.1241 44.094 51.2086 44.469 51.2303 44.8502C51.2425 45.7447 51.2091 46.6392 51.1303 47.5302C51.0803 48.1902 51.0403 48.8702 51.0203 49.5302H45.5703C45.5703 49.3502 45.5703 49.1502 45.6403 48.9402C45.8429 48.0546 45.7624 47.1277 45.4103 46.2902C45.1984 45.9505 45.081 45.5604 45.0703 45.1602C45.0894 44.7603 45.1566 44.3641 45.2703 43.9802C45.3694 43.6551 45.4298 43.3195 45.4503 42.9802C45.4084 42.1143 45.1356 41.2753 44.6603 40.5502C44.6014 40.4567 44.548 40.3599 44.5003 40.2602L41.5503 34.7402L40.6103 34.9802V50.7002H19.7603V34.9902L18.8203 34.7502L15.8203 40.3302L15.6903 40.5602C15.2149 41.2853 14.9422 42.1243 14.9003 42.9902C14.9207 43.3295 14.9811 43.6651 15.0803 43.9902C15.1939 44.3741 15.2611 44.7703 15.2803 45.1702C15.2698 45.5583 15.1597 45.9371 14.9603 46.2702C14.5929 47.1175 14.5053 48.0598 14.7103 48.9602C14.7103 49.1602 14.7603 49.3602 14.7803 49.5402H9.33028C9.33028 48.8802 9.26026 48.2002 9.22026 47.5402C9.14129 46.6525 9.10794 45.7613 9.12028 44.8702C9.14198 44.489 9.22644 44.114 9.37028 43.7602C9.72292 42.8307 9.78566 41.8161 9.55028 40.8502C9.24028 38.1602 11.8903 33.7602 14.6903 29.1102C15.4603 27.8302 16.2603 26.5102 17.0203 25.1802C17.4125 24.4924 18.0155 23.949 18.7403 23.6302L20.6203 22.8302L25.2103 20.9102L25.0703 20.4802C24.5076 18.6106 24.1719 16.6801 24.0703 14.7302C23.9677 13.9158 24.0357 13.089 24.2699 12.3023C24.504 11.5155 24.8992 10.7861 25.4303 10.1602C26.7173 8.93744 28.4062 8.2263 30.1803 8.16023L30.1703 8.14023ZM30.1803 7.02023C28.0963 7.1026 26.1177 7.95821 24.6303 9.42023C23.9953 10.1564 23.5207 11.0168 23.2366 11.9465C22.9526 12.8762 22.8652 13.8549 22.9803 14.8202C23.0788 16.6685 23.3841 18.4999 23.8903 20.2802L20.2503 21.8002L18.3703 22.6102C17.4219 23.0172 16.6295 23.7184 16.1103 24.6102C15.3503 25.9302 14.5603 27.2402 13.8003 28.5102C10.8003 33.5602 8.14028 37.9102 8.49028 40.9702C8.49028 40.9702 8.49028 41.0302 8.49028 41.0602C8.68958 41.8364 8.63706 42.6559 8.34029 43.4002C8.16539 43.8581 8.06412 44.3407 8.04027 44.8302C8.0214 45.7614 8.05479 46.6928 8.14027 47.6202V47.6802C8.14027 48.3102 8.23026 48.9602 8.25026 49.5902C8.26063 49.8829 8.38424 50.1602 8.59505 50.3635C8.80585 50.5669 9.08737 50.6804 9.38026 50.6802H14.8303C14.9845 50.6805 15.137 50.6486 15.2782 50.5866C15.4194 50.5246 15.5461 50.4339 15.6503 50.3202C15.7545 50.2007 15.8324 50.0606 15.879 49.909C15.9255 49.7574 15.9395 49.5976 15.9203 49.4402C15.9203 49.2602 15.9203 49.0502 15.8503 48.8402C15.6913 48.1771 15.7296 47.4819 15.9603 46.8402C16.2566 46.3327 16.4184 45.7578 16.4303 45.1702C16.4098 44.6822 16.3292 44.1985 16.1903 43.7302C16.1235 43.4946 16.0766 43.2537 16.0503 43.0102C16.0894 42.3433 16.3032 41.6984 16.6703 41.1402C16.7503 41.0002 16.8003 40.9202 16.8403 40.8302L18.6203 37.5102V50.7102C18.6203 51.0099 18.7393 51.2973 18.9512 51.5093C19.1632 51.7212 19.4506 51.8402 19.7503 51.8402H40.5703C40.87 51.8402 41.1574 51.7212 41.3693 51.5093C41.5812 51.2973 41.7003 51.0099 41.7003 50.7102V37.5202L43.4603 40.8102L43.6403 41.1302C44.0151 41.6928 44.2326 42.3453 44.2703 43.0202C44.2446 43.2606 44.1978 43.4981 44.1303 43.7302C43.9905 44.2018 43.9099 44.6888 43.8903 45.1802C43.9062 45.7916 44.0821 46.388 44.4003 46.9102C44.6036 47.5275 44.6278 48.1897 44.4703 48.8202C44.4703 49.0502 44.4203 49.2702 44.4003 49.4602C44.3903 49.6164 44.4116 49.7729 44.4632 49.9206C44.5147 50.0683 44.5953 50.2042 44.7003 50.3202C44.8071 50.4332 44.9357 50.5234 45.0784 50.5853C45.221 50.6472 45.3748 50.6795 45.5303 50.6802H50.9803C51.2732 50.6804 51.5547 50.5669 51.7655 50.3635C51.9763 50.1602 52.0999 49.8829 52.1103 49.5902C52.1103 48.9402 52.1803 48.2702 52.2203 47.5902C52.2903 46.5902 52.3503 45.5902 52.3203 44.8002C52.2964 44.3107 52.1952 43.8281 52.0203 43.3702C51.7253 42.6394 51.6727 41.8332 51.8703 41.0702C51.8703 41.0702 51.8703 41.0102 51.8703 40.9802C52.2303 37.8802 49.6103 33.5302 46.5703 28.4902L46.4803 28.3302C45.7403 27.1102 44.9903 25.8502 44.2603 24.5802C43.741 23.6884 42.9486 22.9872 42.0003 22.5802L40.1403 21.7802L36.4803 20.2502C36.9746 18.4601 37.2829 16.6237 37.4003 14.7702C37.5111 13.8074 37.4208 12.8321 37.135 11.906C36.8493 10.9799 36.3743 10.1232 35.7403 9.39023C34.2515 7.92431 32.2682 7.06823 30.1803 6.99023V7.02023Z" fill="black"/>
<path d="M19 49.7197H41.15V49.8597C41.15 50.5466 40.8771 51.2054 40.3914 51.6911C39.9057 52.1769 39.2469 52.4497 38.56 52.4497H21.63C21.2865 52.455 20.9454 52.392 20.6266 52.2642C20.3077 52.1364 20.0174 51.9465 19.7727 51.7054C19.5279 51.4644 19.3336 51.1771 19.2009 50.8602C19.0683 50.5433 19 50.2032 19 49.8597V49.7197Z" fill="white"/>
<path d="M40.5701 49.5098V50.7098C40.5701 51.8998 35.3701 52.4998 30.1601 52.4998C24.9501 52.4998 19.7601 51.8998 19.7601 50.7098V49.5098H18.6201V50.7098C18.6201 51.5098 18.6201 53.6298 30.1601 53.6298C41.7001 53.6298 41.7101 51.5098 41.7101 50.7098V49.5098H40.5701Z" fill="black"/>
<path d="M36.9795 29.5497H23.1795C23.1371 29.5497 23.0964 29.5329 23.0664 29.5029C23.0364 29.4729 23.0195 29.4322 23.0195 29.3897C23.0195 29.3463 23.036 29.3045 23.0657 29.2729C23.0955 29.2413 23.1362 29.2223 23.1795 29.2197H36.9795C37.0229 29.2223 37.0636 29.2413 37.0933 29.2729C37.1231 29.3045 37.1396 29.3463 37.1395 29.3897C37.1395 29.4322 37.1227 29.4729 37.0927 29.5029C37.0626 29.5329 37.022 29.5497 36.9795 29.5497Z" fill="black"/>
<path d="M37.8402 32.6896H22.4502C22.306 32.687 22.1687 32.6279 22.0677 32.525C21.9667 32.4222 21.9101 32.2838 21.9102 32.1396C21.9102 31.9964 21.9671 31.859 22.0683 31.7578C22.1696 31.6565 22.3069 31.5996 22.4502 31.5996H37.8402C37.9834 31.5996 38.1207 31.6565 38.222 31.7578C38.3233 31.859 38.3802 31.9964 38.3802 32.1396C38.3802 32.2838 38.3236 32.4222 38.2226 32.525C38.1216 32.6279 37.9843 32.687 37.8402 32.6896Z" fill="black"/>
<path d="M40.5199 39.87H19.8199C19.7722 39.87 19.7264 39.851 19.6927 39.8173C19.6589 39.7835 19.6399 39.7377 19.6399 39.69C19.6386 39.6655 19.6422 39.641 19.6506 39.618C19.6591 39.595 19.6721 39.574 19.689 39.5562C19.7058 39.5384 19.7261 39.5243 19.7487 39.5146C19.7712 39.5049 19.7954 39.5 19.8199 39.5H40.5199C40.5444 39.5 40.5687 39.5049 40.5912 39.5146C40.6137 39.5243 40.634 39.5384 40.6509 39.5562C40.6677 39.574 40.6808 39.595 40.6892 39.618C40.6976 39.641 40.7013 39.6655 40.6999 39.69C40.6999 39.7377 40.6809 39.7835 40.6472 39.8173C40.6134 39.851 40.5677 39.87 40.5199 39.87Z" fill="black"/>
<path d="M23.8097 28.5004C23.7339 28.498 23.6592 28.481 23.5897 28.4504C23.4578 28.3912 23.3544 28.2825 23.302 28.1478C23.2496 28.013 23.2524 27.8631 23.3097 27.7304L27.4197 18.4404C27.4425 18.3662 27.4807 18.2976 27.5319 18.2392C27.5831 18.1808 27.646 18.134 27.7166 18.1017C27.7872 18.0693 27.8638 18.0523 27.9414 18.0518C28.0191 18.0512 28.0959 18.0671 28.167 18.0983C28.2381 18.1296 28.3017 18.1755 28.3537 18.2332C28.4058 18.2908 28.445 18.3588 28.4689 18.4326C28.4927 18.5065 28.5007 18.5846 28.4922 18.6618C28.4838 18.7389 28.459 18.8134 28.4197 18.8804L24.3097 28.2204C24.2611 28.3093 24.1883 28.3826 24.0999 28.4322C24.0115 28.4817 23.911 28.5053 23.8097 28.5004Z" fill="black"/>
<path d="M21.9701 39.5697C21.9277 39.5697 21.887 39.5529 21.857 39.5229C21.827 39.4928 21.8101 39.4522 21.8101 39.4097V32.1397C21.8055 32.12 21.8055 32.0994 21.8101 32.0797L23.0201 29.3197C23.0396 29.2807 23.0732 29.2507 23.1142 29.2358C23.1551 29.2209 23.2002 29.2223 23.2401 29.2397C23.26 29.2472 23.2781 29.2588 23.2931 29.2738C23.3082 29.2888 23.3199 29.3068 23.3275 29.3267C23.335 29.3466 23.3383 29.3678 23.337 29.389C23.3357 29.4102 23.33 29.4309 23.3201 29.4497L22.1201 32.1797V39.4397C22.1134 39.4751 22.0949 39.5072 22.0677 39.5308C22.0405 39.5544 22.0061 39.5681 21.9701 39.5697Z" fill="black"/>
<path d="M38.2705 39.5704C38.228 39.5704 38.1873 39.5536 38.1573 39.5236C38.1273 39.4935 38.1105 39.4529 38.1105 39.4104V32.1804L32.1705 18.6704C32.1606 18.6516 32.1548 18.6309 32.1536 18.6097C32.1523 18.5885 32.1556 18.5673 32.1631 18.5474C32.1707 18.5275 32.1824 18.5095 32.1975 18.4945C32.2125 18.4795 32.2306 18.4679 32.2504 18.4604C32.2904 18.443 32.3355 18.4416 32.3764 18.4565C32.4174 18.4714 32.451 18.5014 32.4704 18.5404L38.4205 32.0804C38.4251 32.1001 38.4251 32.1207 38.4205 32.1404V39.4404C38.4137 39.4758 38.3953 39.5079 38.3681 39.5315C38.3408 39.5551 38.3065 39.5688 38.2705 39.5704Z" fill="black"/>
<path d="M35.6505 13.9298C35.6505 19.6398 32.2704 20.7998 30.1704 20.7998C28.0704 20.7998 24.6904 19.6398 24.6904 13.9298C24.6904 10.7198 27.2504 9.34977 30.1704 9.25977C33.0904 9.34977 35.6505 10.7198 35.6505 13.9298Z" fill="black"/>
<path d="M38.2705 32.3104C38.2389 32.3084 38.2084 32.2981 38.182 32.2806C38.1557 32.263 38.1345 32.2388 38.1205 32.2104L32.1705 18.6704C32.1606 18.6516 32.1548 18.6309 32.1536 18.6097C32.1523 18.5885 32.1556 18.5673 32.1631 18.5474C32.1707 18.5275 32.1824 18.5095 32.1975 18.4945C32.2125 18.4795 32.2306 18.4679 32.2504 18.4604C32.2904 18.443 32.3355 18.4416 32.3764 18.4565C32.4174 18.4714 32.451 18.5014 32.4704 18.5404L38.4205 32.0804C38.4303 32.0992 38.4361 32.1199 38.4373 32.1412C38.4386 32.1624 38.4353 32.1836 38.4278 32.2034C38.4202 32.2233 38.4085 32.2413 38.3935 32.2563C38.3784 32.2713 38.3604 32.2829 38.3405 32.2904L38.2705 32.3104Z" fill="black"/>
</g>
<defs>
<clipPath id="clip0">
<rect width="44.34" height="46.62" fill="white" transform="translate(8 7)"/>
</clipPath>
</defs>
</svg>