<svg xmlns="http://www.w3.org/2000/svg" fill="none" viewBox="8 6.98 44.35 46.65">
<g clip-path="url(#clip0)">
<path d="M30.1298 23.5196C29.6207 23.5214 29.1123 23.4813 28.6098 23.3996C27.6635 23.2844 26.7729 22.8899 26.0516 22.2666C25.3303 21.6432 24.811 20.8193 24.5598 19.8996C24.5538 19.8786 24.5522 19.8566 24.5551 19.8349C24.558 19.8133 24.5653 19.7924 24.5765 19.7737C24.5878 19.7549 24.6027 19.7387 24.6205 19.726C24.6382 19.7132 24.6584 19.7042 24.6798 19.6996C24.7014 19.6936 24.7241 19.6919 24.7464 19.6947C24.7687 19.6974 24.7903 19.7046 24.8098 19.7158C24.8294 19.7269 24.8465 19.7418 24.8602 19.7597C24.8739 19.7775 24.884 19.7979 24.8898 19.8196C25.3198 21.5496 26.5198 22.5796 28.6698 23.0696C29.6839 23.2246 30.7157 23.2246 31.7298 23.0696C33.8598 22.5896 35.0698 21.5596 35.5098 19.8296C35.5156 19.8079 35.5256 19.7875 35.5393 19.7697C35.553 19.7518 35.5702 19.7369 35.5897 19.7258C35.6092 19.7146 35.6308 19.7074 35.6531 19.7046C35.6755 19.7019 35.6981 19.7036 35.7198 19.7096C35.7411 19.7143 35.7613 19.7232 35.7791 19.7359C35.7968 19.7487 35.8118 19.7649 35.823 19.7837C35.8343 19.8024 35.8416 19.8232 35.8444 19.8449C35.8473 19.8666 35.8457 19.8886 35.8398 19.9096C35.585 20.8273 35.0646 21.6492 34.344 22.272C33.6234 22.8947 32.7347 23.2905 31.7898 23.4096C31.2397 23.4846 30.685 23.5214 30.1298 23.5196Z" fill="black"/>
<path d="M18.9096 35.0897L19.6296 23.1797L19.7596 35.1097L19.7696 35.5397L18.8896 35.5197L18.9096 35.0897Z" fill="black"/>
<path d="M40.5801 35.1097L40.7201 23.1797L41.4301 35.0897L41.4601 35.5197L40.5801 35.5397V35.1097Z" fill="black"/>
<path d="M30.1296 8.14047C31.9071 8.20413 33.6001 8.91544 34.8896 10.1405C35.4153 10.7676 35.8071 11.4957 36.041 12.2799C36.2749 13.0641 36.3459 13.8878 36.2496 14.7005C36.1405 16.6527 35.8049 18.5857 35.2496 20.4605L35.1096 20.8905L39.7096 22.8105L41.5796 23.6105C42.3064 23.9262 42.9103 24.4704 43.2996 25.1605C44.0596 26.4905 44.8596 27.8105 45.6196 29.0905C48.4296 33.7405 51.0796 38.1405 50.7696 40.8705C50.5328 41.8236 50.5992 42.8269 50.9596 43.7405C51.1 44.0948 51.1811 44.4698 51.1996 44.8505C51.2118 45.7449 51.1784 46.6394 51.0996 47.5305C51.0996 48.1905 51.0096 48.8705 50.9896 49.5305H45.5496C45.5496 49.3505 45.5496 49.1505 45.6096 48.9405C45.8122 48.0548 45.7318 47.128 45.3796 46.2905C45.1678 45.9508 45.0504 45.5607 45.0396 45.1605C45.0639 44.7611 45.131 44.3655 45.2396 43.9805C45.3387 43.6554 45.3992 43.3197 45.4196 42.9805C45.3742 42.1166 45.1054 41.2794 44.6396 40.5505L44.4696 40.2605L41.5196 34.7405L40.5796 34.9805V50.7005H19.7596V34.9905L18.8196 34.7505L15.8196 40.3305L15.6896 40.5605C15.2182 41.2867 14.949 42.1255 14.9096 42.9905C14.9213 43.3299 14.9785 43.6662 15.0796 43.9905C15.1961 44.3741 15.2666 44.7702 15.2896 45.1705C15.2785 45.5598 15.1646 45.9393 14.9596 46.2705C14.5922 47.1177 14.5046 48.0601 14.7096 48.9605C14.7096 49.1605 14.7096 49.3605 14.7796 49.5405H9.32962C9.32962 48.8805 9.2696 48.2005 9.2196 47.5405C9.1596 46.5405 9.0896 45.6205 9.1196 44.8705C9.14614 44.4899 9.23044 44.1157 9.3696 43.7605C9.72728 42.832 9.79015 41.8159 9.54962 40.8505C9.24962 38.1605 11.8896 33.7605 14.6996 29.1105C15.4696 27.8305 16.2596 26.5105 17.0296 25.1805C17.4166 24.4885 18.0212 23.9436 18.7496 23.6305L20.6196 22.8305L25.2096 20.9105L25.1296 20.4405C24.5729 18.5694 24.2373 16.6396 24.1296 14.6905C24.0319 13.8762 24.1022 13.0506 24.3362 12.2646C24.5701 11.4786 24.9626 10.7488 25.4896 10.1205C26.7766 8.89768 28.4656 8.18653 30.2396 8.12047L30.1296 8.14047ZM30.2396 6.98047C28.1525 7.06229 26.1706 7.91781 24.6796 9.38048C24.0447 10.1167 23.5701 10.977 23.286 11.9067C23.0019 12.8364 22.9146 13.8151 23.0296 14.7805C23.1398 16.6274 23.4448 18.4576 23.9396 20.2405L20.2996 21.7605L18.4196 22.5705C17.4712 22.9774 16.6789 23.6786 16.1596 24.5705C15.3996 25.8905 14.6196 27.2005 13.8496 28.4705C10.8496 33.5205 8.19962 37.8705 8.54962 40.9305C8.54477 40.9603 8.54477 40.9907 8.54962 41.0205C8.75141 41.7957 8.70238 42.6149 8.40961 43.3605C8.22609 43.8162 8.12127 44.2997 8.09961 44.7905C8.09961 45.6005 8.09962 46.6105 8.19962 47.5805V47.6405C8.19962 48.2705 8.27962 48.9205 8.29962 49.5505C8.30999 49.8432 8.43358 50.1204 8.64438 50.3238C8.85518 50.5271 9.1367 50.6407 9.4296 50.6405H14.8796C15.1777 50.6199 15.4556 50.4822 15.6524 50.2573C15.8492 50.0324 15.9488 49.7387 15.9296 49.4405C15.9296 49.2605 15.9296 49.0505 15.8596 48.8405C15.7058 48.1769 15.7439 47.4832 15.9696 46.8405C16.266 46.3329 16.4277 45.7581 16.4396 45.1705C16.4191 44.6824 16.3385 44.1988 16.1996 43.7305C16.1328 43.4948 16.086 43.254 16.0596 43.0105C16.0969 42.3417 16.3146 41.6955 16.6896 41.1405C16.7596 41.0005 16.8096 40.9205 16.8596 40.8305L18.6296 37.5105V50.7105C18.6322 51.0094 18.7521 51.2953 18.9635 51.5066C19.1748 51.718 19.4607 51.8379 19.7596 51.8405H40.5796C40.8802 51.8405 41.1687 51.7217 41.3822 51.5101C41.5957 51.2985 41.717 51.0111 41.7196 50.7105V37.5205L43.4696 40.8105L43.6596 41.1305C44.0266 41.6961 44.2402 42.3474 44.2796 43.0205C44.2589 43.2615 44.212 43.4996 44.1396 43.7305C44.0095 44.2042 43.9291 44.6901 43.8996 45.1805C43.9155 45.7918 44.0914 46.3883 44.4096 46.9105C44.6114 47.5277 44.6391 48.1886 44.4896 48.8205C44.4896 49.0505 44.4296 49.2705 44.4196 49.4605C44.4053 49.6161 44.4237 49.7731 44.4736 49.9212C44.5235 50.0693 44.6039 50.2053 44.7096 50.3205C44.8179 50.4342 44.9483 50.5248 45.0927 50.5867C45.237 50.6486 45.3925 50.6805 45.5496 50.6805H50.9896C51.2832 50.6832 51.5662 50.5705 51.7776 50.3666C51.9889 50.1628 52.1117 49.884 52.1196 49.5905C52.1196 48.9405 52.1896 48.2705 52.2296 47.5905C52.2996 46.5905 52.3696 45.5905 52.3396 44.8005C52.3081 44.311 52.2036 43.829 52.0296 43.3705C51.7401 42.6384 51.6876 41.8339 51.8796 41.0705C51.8845 41.0407 51.8845 41.0103 51.8796 40.9805C52.2396 37.8805 49.6196 33.5305 46.5896 28.4905L46.4896 28.3305C45.7596 27.1105 44.9996 25.8505 44.2696 24.5805C43.7555 23.6844 42.9615 22.9819 42.0096 22.5805L40.1496 21.7805L36.4896 20.2505C36.9947 18.4627 37.3032 16.6252 37.4096 14.7705C37.5204 13.8077 37.4301 12.8323 37.1443 11.9062C36.8586 10.9801 36.3837 10.1235 35.7496 9.39047C34.2608 7.92455 32.2775 7.06847 30.1896 6.99048L30.2396 6.98047Z" fill="black"/>
<path d="M19 49.7197H41.15V49.8597C41.15 50.5466 40.8771 51.2054 40.3914 51.6911C39.9057 52.1769 39.2469 52.4497 38.56 52.4497H21.63C21.2865 52.455 20.9454 52.392 20.6266 52.2642C20.3077 52.1364 20.0174 51.9465 19.7727 51.7054C19.5279 51.4644 19.3336 51.1771 19.2009 50.8602C19.0683 50.5433 19 50.2032 19 49.8597V49.7197Z" fill="white"/>
<path d="M40.5799 49.5098V50.7098C40.5799 51.8998 35.3799 52.4998 30.1699 52.4998C24.9599 52.4998 19.7699 51.8998 19.7699 50.7098V49.5098H18.6299V50.7098C18.6299 51.5098 18.6299 53.6298 30.1699 53.6298C41.7099 53.6298 41.7199 51.5098 41.7199 50.7098V49.5098H40.5799Z" fill="black"/>
<path d="M37.5703 46.2198H22.5103C22.4599 46.2198 22.4116 46.1998 22.3759 46.1642C22.3403 46.1286 22.3203 46.0802 22.3203 46.0298C22.3203 45.9795 22.3403 45.9311 22.3759 45.8955C22.4116 45.8599 22.4599 45.8398 22.5103 45.8398H37.5703C37.6207 45.8398 37.669 45.8599 37.7047 45.8955C37.7403 45.9311 37.7603 45.9795 37.7603 46.0298C37.7603 46.0802 37.7403 46.1286 37.7047 46.1642C37.669 46.1998 37.6207 46.2198 37.5703 46.2198Z" fill="black"/>
<path d="M22.0305 53.0004C21.8846 53.0004 21.7447 52.9425 21.6415 52.8394C21.5384 52.7362 21.4805 52.5963 21.4805 52.4504V33.1104C21.479 31.1247 21.9703 29.1696 22.9105 27.4204L27.5005 18.8404C27.5681 18.7078 27.6856 18.6075 27.8272 18.5616C27.9688 18.5156 28.1229 18.5278 28.2555 18.5954C28.3881 18.6631 28.4884 18.7806 28.5343 18.9222C28.5803 19.0638 28.5681 19.2178 28.5005 19.3505L23.9105 27.9305C23.0582 29.5241 22.6117 31.3032 22.6105 33.1104V52.4404C22.612 52.5161 22.5978 52.5913 22.5689 52.6612C22.5401 52.7312 22.497 52.7944 22.4426 52.8469C22.3882 52.8995 22.3235 52.9403 22.2525 52.9667C22.1816 52.9931 22.106 53.0046 22.0305 53.0004Z" fill="black"/>
<path d="M38.1303 52.9998C37.9844 52.9998 37.8445 52.9418 37.7413 52.8387C37.6382 52.7356 37.5803 52.5957 37.5803 52.4498V33.1098C37.5768 31.304 37.1341 29.5262 36.2903 27.9298L31.7003 19.3498C31.6655 19.2877 31.6437 19.2192 31.6359 19.1485C31.6282 19.0778 31.6348 19.0062 31.6553 18.9381C31.6759 18.87 31.7099 18.8067 31.7554 18.752C31.8009 18.6973 31.857 18.6523 31.9203 18.6198C31.9831 18.5848 32.0523 18.5628 32.1238 18.555C32.1953 18.5471 32.2676 18.5536 32.3365 18.5741C32.4055 18.5946 32.4696 18.6287 32.5252 18.6743C32.5808 18.7199 32.6267 18.7762 32.6603 18.8398L37.2503 27.4198C38.1822 29.1716 38.6699 31.1255 38.6703 33.1098V52.4398C38.6716 52.512 38.6587 52.5838 38.6322 52.651C38.6058 52.7183 38.5664 52.7796 38.5163 52.8316C38.4661 52.8837 38.4062 52.9253 38.34 52.9541C38.2737 52.983 38.2025 52.9985 38.1303 52.9998Z" fill="black"/>
<path d="M33.2304 31.79H27.1304C27.0988 31.7874 27.0682 31.778 27.0406 31.7624C27.013 31.7469 26.989 31.7256 26.9704 31.7L23.8404 26.79C23.8262 26.7701 23.8164 26.7475 23.8118 26.7236C23.8071 26.6996 23.8076 26.675 23.8133 26.6512C23.819 26.6275 23.8297 26.6053 23.8447 26.5861C23.8598 26.5669 23.8788 26.5512 23.9004 26.54C23.9201 26.5268 23.9422 26.5176 23.9654 26.513C23.9887 26.5084 24.0126 26.5084 24.0358 26.5131C24.059 26.5177 24.0811 26.5269 24.1008 26.5401C24.1204 26.5533 24.1373 26.5702 24.1504 26.59L27.2304 31.41H33.1304L36.2104 26.59C36.2387 26.5494 36.2817 26.5215 36.3303 26.5122C36.3788 26.5029 36.4291 26.5128 36.4704 26.54C36.491 26.5523 36.5088 26.5685 36.523 26.5878C36.5372 26.6071 36.5474 26.6291 36.5529 26.6524C36.5585 26.6756 36.5594 26.6998 36.5555 26.7234C36.5517 26.747 36.5431 26.7697 36.5304 26.79L33.3904 31.7C33.3735 31.7272 33.35 31.7498 33.322 31.7656C33.294 31.7813 33.2625 31.7897 33.2304 31.79Z" fill="black"/>
<path d="M36.5696 38.8504H23.7796C23.7412 38.8497 23.7039 38.8381 23.672 38.8168C23.6401 38.7955 23.6149 38.7655 23.5996 38.7303L22.4696 35.5104C22.4602 35.4882 22.4556 35.4642 22.4561 35.4401C22.4566 35.416 22.4623 35.3923 22.4727 35.3705C22.4831 35.3488 22.498 35.3295 22.5164 35.3139C22.5349 35.2984 22.5564 35.2869 22.5796 35.2803C22.6025 35.2708 22.6271 35.2662 22.6519 35.2666C22.6766 35.2671 22.7011 35.2726 22.7236 35.283C22.7461 35.2933 22.7663 35.3082 22.7828 35.3266C22.7993 35.3451 22.8118 35.3668 22.8196 35.3903L23.9096 38.4803H36.4396L37.5296 35.4404C37.5373 35.4168 37.5499 35.3951 37.5664 35.3766C37.5829 35.3582 37.6031 35.3433 37.6256 35.333C37.6481 35.3226 37.6725 35.3171 37.6973 35.3166C37.7221 35.3162 37.7467 35.3208 37.7696 35.3304C37.8132 35.3482 37.8486 35.3817 37.8689 35.4242C37.8892 35.4667 37.893 35.5152 37.8796 35.5603L36.7396 38.7803C36.7209 38.8071 36.695 38.8279 36.6649 38.8403C36.6347 38.8527 36.6017 38.8562 36.5696 38.8504Z" fill="black"/>
<path d="M35.6504 13.9298C35.6504 19.6398 32.2804 20.7998 30.1704 20.7998C28.0604 20.7998 24.6904 19.6398 24.6904 13.9298C24.6904 10.7198 27.2604 9.34977 30.1704 9.25977C33.1304 9.34977 35.6504 10.7198 35.6504 13.9298Z" fill="black"/>
<path d="M37.5697 35.5801H22.5097C22.4818 35.5866 22.4528 35.5867 22.4249 35.5805C22.3969 35.5742 22.3708 35.5617 22.3483 35.544C22.3259 35.5262 22.3077 35.5035 22.2953 35.4777C22.2828 35.452 22.2764 35.4237 22.2764 35.3951C22.2764 35.3664 22.2828 35.3382 22.2953 35.3124C22.3077 35.2866 22.3259 35.264 22.3483 35.2462C22.3708 35.2284 22.3969 35.2159 22.4249 35.2097C22.4528 35.2034 22.4818 35.2036 22.5097 35.2101H37.5697C37.5942 35.21 37.6184 35.215 37.6409 35.2247C37.6634 35.2343 37.6838 35.2485 37.7006 35.2663C37.7175 35.2841 37.7305 35.3051 37.739 35.3281C37.7474 35.3511 37.751 35.3756 37.7497 35.4001C37.7497 35.4478 37.7307 35.4936 37.697 35.5274C37.6632 35.5611 37.6174 35.5801 37.5697 35.5801Z" fill="black"/>
</g>
<defs>
<clipPath id="clip0">
<rect width="44.34" height="46.62" fill="white" transform="translate(8 7)"/>
</clipPath>
</defs>
</svg>